<?xml version="1.0" encoding="UTF-8" standalone="no"?><svg xmlns="http://www.w3.org/2000/svg" xmlns:xlink="http://www.w3.org/1999/xlink" contentScriptType="application/ecmascript" contentStyleType="text/css" height="226px" preserveAspectRatio="none" style="width:1577px;height:226px;" version="1.1" viewBox="0 0 1577 226" width="1577px" zoomAndPan="magnify"><defs><filter height="300%" id="fix0720nb16tn" width="300%" x="-1" y="-1"><feGaussianBlur result="blurOut" stdDeviation="2.0"/><feColorMatrix in="blurOut" result="blurOut2" type="matrix" values="0 0 0 0 0 0 0 0 0 0 0 0 0 0 0 0 0 0 .4 0"/><feOffset dx="4.0" dy="4.0" in="blurOut2" result="blurOut3"/><feBlend in="SourceGraphic" in2="blurOut3" mode="normal"/></filter></defs><g><rect fill="#FEFECE" filter="url(#fix0720nb16tn)" height="48.2656" rx="12.5" ry="12.5" style="stroke:#0000FF;stroke-width:1.5;" width="229" x="577" y="88.2656"/><text fill="#000000" font-family="sans-serif" font-size="24" lengthAdjust="spacing" textLength="209" x="587" y="121.4688">Application of DO</text><rect fill="#FEFECE" filter="url(#fix0720nb16tn)" height="48.2656" rx="12.5" ry="12.5" style="stroke:#0000FF;stroke-width:1.5;" width="233" x="856" y="88.2656"/><text fill="#000000" font-family="sans-serif" font-size="24" lengthAdjust="spacing" textLength="213" x="866" y="121.4688">Dynamically typed</text><rect fill="#FEFECE" filter="url(#fix0720nb16tn)" height="48.2656" rx="12.5" ry="12.5" style="stroke:#0000FF;stroke-width:1.5;" width="104" x="1139" y="20"/><text fill="#000000" font-family="sans-serif" font-size="24" lengthAdjust="spacing" textLength="84" x="1149" y="53.2031">Clojure</text><rect fill="#90EE90" filter="url(#fix0720nb16tn)" height="48.2656" rx="12.5" ry="12.5" style="stroke:#0000FF;stroke-width:1.5;" width="146" x="1293" y="20"/><text fill="#000000" font-family="sans-serif" font-size="24" lengthAdjust="spacing" textLength="92" x="1303" y="53.2031">Records</text><path d="M1410.18,36.2656 C1410.06,36.2656 1409.98,36.3456 1409.92,36.4456 L1404.04,50.0656 C1404,50.1656 1403.98,50.3256 1403.98,50.4456 L1403.98,52.0656 C1403.98,52.1656 1404.06,52.2456 1404.16,52.2456 L1417.78,52.2456 C1417.88,52.2456 1417.96,52.1656 1417.96,52.0656 L1417.96,50.4456 C1417.96,50.3456 1417.94,50.1656 1417.9,50.0656 L1412.02,36.4456 C1411.98,36.3456 1411.88,36.2656 1411.76,36.2656 L1410.14,36.2656 M1409.96,42.2656 L1411.96,42.2656 L1411.96,46.2656 L1409.96,46.2656 L1409.96,42.2656 M1409.96,48.2656 L1411.96,48.2656 L1411.96,50.2656 L1409.96,50.2656 L1409.96,48.2656 " fill="#000000" style="stroke:;stroke-width:0.0;stroke-dasharray:;"/><text fill="#000000" font-family="sans-serif" font-size="24" lengthAdjust="spacing" textLength="0" x="1429" y="53.2031"/><path d="M1243,44.1328 L1253,44.1328 C1268,44.1328 1268,44.1328 1283,44.1328 L1293,44.1328 " fill="none" style="stroke:#0000FF;stroke-width:3.0;"/><path d="M1089,112.3984 L1099,112.3984 C1114,112.3984 1114,44.1328 1129,44.1328 L1139,44.1328 " fill="none" style="stroke:#0000FF;stroke-width:3.0;"/><rect fill="#FEFECE" filter="url(#fix0720nb16tn)" height="48.2656" rx="12.5" ry="12.5" style="stroke:#0000FF;stroke-width:1.5;" width="98" x="1139" y="122.3984"/><text fill="#000000" font-family="sans-serif" font-size="24" lengthAdjust="spacing" textLength="78" x="1149" y="155.6016">Others</text><rect fill="#FEFECE" filter="url(#fix0720nb16tn)" height="48.2656" rx="12.5" ry="12.5" style="stroke:#0000FF;stroke-width:1.5;" width="271" x="1287" y="88.2656"/><text fill="#000000" font-family="sans-serif" font-size="24" lengthAdjust="spacing" textLength="251" x="1297" y="121.4688">Data manipulation lib</text><path d="M1237,146.5313 L1247,146.5313 C1262,146.5313 1262,112.3984 1277,112.3984 L1287,112.3984 " fill="none" style="stroke:#0000FF;stroke-width:3.0;"/><rect fill="#FEFECE" filter="url(#fix0720nb16tn)" height="48.2656" rx="12.5" ry="12.5" style="stroke:#0000FF;stroke-width:1.5;" width="180" x="1287" y="156.5313"/><text fill="#000000" font-family="sans-serif" font-size="24" lengthAdjust="spacing" textLength="160" x="1297" y="189.7344">Immutable lib</text><path d="M1237,146.5313 L1247,146.5313 C1262,146.5313 1262,180.6641 1277,180.6641 L1287,180.6641 " fill="none" style="stroke:#0000FF;stroke-width:3.0;"/><path d="M1089,112.3984 L1099,112.3984 C1114,112.3984 1114,146.5313 1129,146.5313 L1139,146.5313 " fill="none" style="stroke:#0000FF;stroke-width:3.0;"/><path d="M806,112.3984 L816,112.3984 C831,112.3984 831,112.3984 846,112.3984 L856,112.3984 " fill="none" style="stroke:#0000FF;stroke-width:3.0;"/><rect fill="#FEFECE" filter="url(#fix0720nb16tn)" height="48.2656" rx="12.5" ry="12.5" style="stroke:#0000FF;stroke-width:1.5;" width="196" x="331" y="88.2656"/><text fill="#000000" font-family="sans-serif" font-size="24" lengthAdjust="spacing" textLength="176" x="341" y="121.4688">Statically typed</text><rect fill="#FEFECE" filter="url(#fix0720nb16tn)" height="48.2656" rx="12.5" ry="12.5" style="stroke:#0000FF;stroke-width:1.5;" width="271" x="10" y="20"/><text fill="#000000" font-family="sans-serif" font-size="24" lengthAdjust="spacing" textLength="251" x="20" y="53.2031">Data manipulation lib</text><path d="M331,112.3984 L321,112.3984 C306,112.3984 306,44.1328 291,44.1328 L281,44.1328 " fill="none" style="stroke:#0000FF;stroke-width:3.0;"/><rect fill="#FEFECE" filter="url(#fix0720nb16tn)" height="48.2656" rx="12.5" ry="12.5" style="stroke:#0000FF;stroke-width:1.5;" width="180" x="101" y="88.2656"/><text fill="#000000" font-family="sans-serif" font-size="24" lengthAdjust="spacing" textLength="160" x="111" y="121.4688">Immutable lib</text><path d="M331,112.3984 L321,112.3984 C306,112.3984 306,112.3984 291,112.3984 L281,112.3984 " fill="none" style="stroke:#0000FF;stroke-width:3.0;"/><rect fill="#FFA500" filter="url(#fix0720nb16tn)" height="48.2656" rx="12.5" ry="12.5" style="stroke:#0000FF;stroke-width:1.5;" width="145" x="136" y="156.5313"/><text fill="#000000" font-family="sans-serif" font-size="24" lengthAdjust="spacing" textLength="117" x="146" y="189.7344">Static cast</text><path d="M331,112.3984 L321,112.3984 C306,112.3984 306,180.6641 291,180.6641 L281,180.6641 " fill="none" style="stroke:#0000FF;stroke-width:3.0;"/><path d="M577,112.3984 L567,112.3984 C552,112.3984 552,112.3984 537,112.3984 L527,112.3984 " fill="none" style="stroke:#0000FF;stroke-width:3.0;"/><!--MD5=[29047beba43fc46bcbcea20b891943a9]
@startmindmap
!include SkinParam.iuml

* Application of DO
** Dynamically typed
*** Clojure
**** Records <&warning> <<green>>
*** Others
**** Data manipulation lib
**** Immutable lib

left side

** Statically typed
*** Data manipulation lib
*** Immutable lib
*** Static cast <<orange>>


@endmindmap

@startmindmap
<style>
mindmapDiagram {
  node {
    LineColor blue
    FontSize  24
  }
  arrow {
    LineColor blue
    LineThickness 3
  }
  .orange {
    BackgroundColor orange
  }
  .red {
    BackgroundColor red
  }

  .green {
    BackgroundColor lightgreen
  }

}
</style>

* Application of DO
** Dynamically typed
*** Clojure
**** Records <&warning> <<green>>
*** Others
**** Data manipulation lib
**** Immutable lib

left side

** Statically typed
*** Data manipulation lib
*** Immutable lib
*** Static cast <<orange>>


@endmindmap

PlantUML version 1.2021.00(Sun Jan 10 12:25:05 IST 2021)
(GPL source distribution)
Java Runtime: Java(TM) SE Runtime Environment
JVM: Java HotSpot(TM) 64-Bit Server VM
Default Encoding: UTF-8
Language: en
Country: IL
--></g></svg>