<?xml version="1.0" encoding="UTF-8" standalone="no"?><svg xmlns="http://www.w3.org/2000/svg" xmlns:xlink="http://www.w3.org/1999/xlink" contentScriptType="application/ecmascript" contentStyleType="text/css" height="223px" preserveAspectRatio="none" style="width:1163px;height:223px;" version="1.1" viewBox="0 0 1163 223" width="1163px" zoomAndPan="magnify"><defs><filter height="300%" id="f8odj1d6qied" width="300%" x="-1" y="-1"><feGaussianBlur result="blurOut" stdDeviation="2.0"/><feColorMatrix in="blurOut" result="blurOut2" type="matrix" values="0 0 0 0 0 0 0 0 0 0 0 0 0 0 0 0 0 0 .4 0"/><feOffset dx="4.0" dy="4.0" in="blurOut2" result="blurOut3"/><feBlend in="SourceGraphic" in2="blurOut3" mode="normal"/></filter></defs><g><rect fill="#FEFECE" filter="url(#f8odj1d6qied)" height="48.2656" rx="12.5" ry="12.5" style="stroke: #0000FF; stroke-width: 1.5;" width="104" x="543" y="88.2656"/><text fill="#000000" font-family="sans-serif" font-size="24" lengthAdjust="spacingAndGlyphs" textLength="84" x="553" y="121.4688">Clojure</text><rect fill="#FEFECE" filter="url(#f8odj1d6qied)" height="48.2656" rx="12.5" ry="12.5" style="stroke: #0000FF; stroke-width: 1.5;" width="158" x="697" y="54.1328"/><text fill="#000000" font-family="sans-serif" font-size="24" lengthAdjust="spacingAndGlyphs" textLength="138" x="707" y="87.3359">Homoiconic</text><rect fill="#FEFECE" filter="url(#f8odj1d6qied)" height="48.2656" rx="12.5" ry="12.5" style="stroke: #0000FF; stroke-width: 1.5;" width="162" x="905" y="20"/><text fill="#000000" font-family="sans-serif" font-size="24" lengthAdjust="spacingAndGlyphs" textLength="142" x="915" y="53.2031">Extensibility</text><path d="M855,78.2656 L865,78.2656 C880,78.2656 880,44.1328 895,44.1328 L905,44.1328 " fill="none" style="stroke: #0000FF; stroke-width: 3.0;"/><rect fill="#FEFECE" filter="url(#f8odj1d6qied)" height="48.2656" rx="12.5" ry="12.5" style="stroke: #0000FF; stroke-width: 1.5;" width="222" x="905" y="88.2656"/><text fill="#000000" font-family="sans-serif" font-size="24" lengthAdjust="spacingAndGlyphs" textLength="202" x="915" y="121.4688">Structural editing</text><path d="M855,78.2656 L865,78.2656 C880,78.2656 880,112.3984 895,112.3984 L905,112.3984 " fill="none" style="stroke: #0000FF; stroke-width: 3.0;"/><path d="M647,112.3984 L657,112.3984 C672,112.3984 672,78.2656 687,78.2656 L697,78.2656 " fill="none" style="stroke: #0000FF; stroke-width: 3.0;"/><rect fill="#FEFECE" filter="url(#f8odj1d6qied)" height="48.2656" rx="12.5" ry="12.5" style="stroke: #0000FF; stroke-width: 1.5;" width="141" x="697" y="156.5313"/><text fill="#000000" font-family="sans-serif" font-size="24" lengthAdjust="spacingAndGlyphs" textLength="121" x="707" y="189.7344">Functional</text><rect fill="#FEFECE" filter="url(#f8odj1d6qied)" height="48.2656" rx="12.5" ry="12.5" style="stroke: #0000FF; stroke-width: 1.5;" width="256" x="888" y="156.5313"/><text fill="#000000" font-family="sans-serif" font-size="24" lengthAdjust="spacingAndGlyphs" textLength="236" x="898" y="189.7344">Power of expression</text><path d="M838,180.6641 L848,180.6641 C863,180.6641 863,180.6641 878,180.6641 L888,180.6641 " fill="none" style="stroke: #0000FF; stroke-width: 3.0;"/><path d="M647,112.3984 L657,112.3984 C672,112.3984 672,180.6641 687,180.6641 L697,180.6641 " fill="none" style="stroke: #0000FF; stroke-width: 3.0;"/><rect fill="#FEFECE" filter="url(#f8odj1d6qied)" height="48.2656" rx="12.5" ry="12.5" style="stroke: #0000FF; stroke-width: 1.5;" width="74" x="419" y="54.1328"/><text fill="#000000" font-family="sans-serif" font-size="24" lengthAdjust="spacingAndGlyphs" textLength="54" x="429" y="87.3359">REPL</text><rect fill="#FEFECE" filter="url(#f8odj1d6qied)" height="48.2656" rx="12.5" ry="12.5" style="stroke: #0000FF; stroke-width: 1.5;" width="254" x="115" y="20"/><text fill="#000000" font-family="sans-serif" font-size="24" lengthAdjust="spacingAndGlyphs" textLength="234" x="125" y="53.2031">Short feedback loop</text><path d="M419,78.2656 L409,78.2656 C394,78.2656 394,44.1328 379,44.1328 L369,44.1328 " fill="none" style="stroke: #0000FF; stroke-width: 3.0;"/><rect fill="#FEFECE" filter="url(#f8odj1d6qied)" height="48.2656" rx="12.5" ry="12.5" style="stroke: #0000FF; stroke-width: 1.5;" width="222" x="147" y="88.2656"/><text fill="#000000" font-family="sans-serif" font-size="24" lengthAdjust="spacingAndGlyphs" textLength="202" x="157" y="121.4688">Code exploration</text><path d="M419,78.2656 L409,78.2656 C394,78.2656 394,112.3984 379,112.3984 L369,112.3984 " fill="none" style="stroke: #0000FF; stroke-width: 3.0;"/><path d="M543,112.3984 L533,112.3984 C518,112.3984 518,78.2656 503,78.2656 L493,78.2656 " fill="none" style="stroke: #0000FF; stroke-width: 3.0;"/><rect fill="#90EE90" filter="url(#f8odj1d6qied)" height="48.2656" rx="12.5" ry="12.5" style="stroke: #0000FF; stroke-width: 1.5;" width="186" x="307" y="156.5313"/><text fill="#000000" font-family="sans-serif" font-size="24" lengthAdjust="spacingAndGlyphs" textLength="158" x="317" y="189.7344">Data oriented</text><rect fill="#90EE90" filter="url(#f8odj1d6qied)" height="48.2656" rx="12.5" ry="12.5" style="stroke: #0000FF; stroke-width: 1.5;" width="247" x="10" y="156.5313"/><text fill="#000000" font-family="sans-serif" font-size="24" lengthAdjust="spacingAndGlyphs" textLength="219" x="20" y="189.7344">Reduce complexity</text><path d="M307,180.6641 L297,180.6641 C282,180.6641 282,180.6641 267,180.6641 L257,180.6641 " fill="none" style="stroke: #0000FF; stroke-width: 3.0;"/><path d="M543,112.3984 L533,112.3984 C518,112.3984 518,180.6641 503,180.6641 L493,180.6641 " fill="none" style="stroke: #0000FF; stroke-width: 3.0;"/><!--MD5=[c1e28de15a262df15e2f3e47aa7497b9]
@startmindmap
!include SkinParam.iuml

* Clojure
** Homoiconic
*** Extensibility
*** Structural editing
** Functional
*** Power of expression

left side

** REPL
*** Short feedback loop
*** Code exploration
** Data oriented <<green>>
*** Reduce complexity <<green>>

@endmindmap

@startmindmap
<style>
mindmapDiagram {
  node {
    LineColor blue
    FontSize  24
  }
  arrow {
    LineColor blue
    LineThickness 3
  }
  .orange {
    BackgroundColor orange
  }
  .red {
    BackgroundColor red
  }

  .green {
    BackgroundColor lightgreen
  }

}
</style>

* Clojure
** Homoiconic
*** Extensibility
*** Structural editing
** Functional
*** Power of expression

left side

** REPL
*** Short feedback loop
*** Code exploration
** Data oriented <<green>>
*** Reduce complexity <<green>>

@endmindmap

PlantUML version 1.2020.15(Sun Jun 28 14:39:45 IDT 2020)
(GPL source distribution)
Java Runtime: Java(TM) SE Runtime Environment
JVM: Java HotSpot(TM) 64-Bit Server VM
Default Encoding: US-ASCII
Language: en
Country: IL
--></g></svg>