<?xml version="1.0" encoding="UTF-8" standalone="no"?><svg xmlns="http://www.w3.org/2000/svg" xmlns:xlink="http://www.w3.org/1999/xlink" contentScriptType="application/ecmascript" contentStyleType="text/css" height="226px" preserveAspectRatio="none" style="width:1169px;height:226px;" version="1.1" viewBox="0 0 1169 226" width="1169px" zoomAndPan="magnify"><defs><filter height="300%" id="ff2mnvxqu9gs2" width="300%" x="-1" y="-1"><feGaussianBlur result="blurOut" stdDeviation="2.0"/><feColorMatrix in="blurOut" result="blurOut2" type="matrix" values="0 0 0 0 0 0 0 0 0 0 0 0 0 0 0 0 0 0 .4 0"/><feOffset dx="4.0" dy="4.0" in="blurOut2" result="blurOut3"/><feBlend in="SourceGraphic" in2="blurOut3" mode="normal"/></filter></defs><g><rect fill="#FEFECE" filter="url(#ff2mnvxqu9gs2)" height="48.2656" rx="12.5" ry="12.5" style="stroke:#0000FF;stroke-width:1.5;" width="104" x="549" y="88.2656"/><text fill="#000000" font-family="sans-serif" font-size="24" lengthAdjust="spacing" textLength="84" x="559" y="121.4688">Clojure</text><rect fill="#FEFECE" filter="url(#ff2mnvxqu9gs2)" height="48.2656" rx="12.5" ry="12.5" style="stroke:#0000FF;stroke-width:1.5;" width="158" x="703" y="54.1328"/><text fill="#000000" font-family="sans-serif" font-size="24" lengthAdjust="spacing" textLength="138" x="713" y="87.3359">Homoiconic</text><rect fill="#FEFECE" filter="url(#ff2mnvxqu9gs2)" height="48.2656" rx="12.5" ry="12.5" style="stroke:#0000FF;stroke-width:1.5;" width="162" x="911" y="20"/><text fill="#000000" font-family="sans-serif" font-size="24" lengthAdjust="spacing" textLength="142" x="921" y="53.2031">Extensibility</text><path d="M861,78.2656 L871,78.2656 C886,78.2656 886,44.1328 901,44.1328 L911,44.1328 " fill="none" style="stroke:#0000FF;stroke-width:3.0;"/><rect fill="#FEFECE" filter="url(#ff2mnvxqu9gs2)" height="48.2656" rx="12.5" ry="12.5" style="stroke:#0000FF;stroke-width:1.5;" width="222" x="911" y="88.2656"/><text fill="#000000" font-family="sans-serif" font-size="24" lengthAdjust="spacing" textLength="202" x="921" y="121.4688">Structural editing</text><path d="M861,78.2656 L871,78.2656 C886,78.2656 886,112.3984 901,112.3984 L911,112.3984 " fill="none" style="stroke:#0000FF;stroke-width:3.0;"/><path d="M653,112.3984 L663,112.3984 C678,112.3984 678,78.2656 693,78.2656 L703,78.2656 " fill="none" style="stroke:#0000FF;stroke-width:3.0;"/><rect fill="#FEFECE" filter="url(#ff2mnvxqu9gs2)" height="48.2656" rx="12.5" ry="12.5" style="stroke:#0000FF;stroke-width:1.5;" width="141" x="703" y="156.5313"/><text fill="#000000" font-family="sans-serif" font-size="24" lengthAdjust="spacing" textLength="121" x="713" y="189.7344">Functional</text><rect fill="#FEFECE" filter="url(#ff2mnvxqu9gs2)" height="48.2656" rx="12.5" ry="12.5" style="stroke:#0000FF;stroke-width:1.5;" width="256" x="894" y="156.5313"/><text fill="#000000" font-family="sans-serif" font-size="24" lengthAdjust="spacing" textLength="236" x="904" y="189.7344">Power of expression</text><path d="M844,180.6641 L854,180.6641 C869,180.6641 869,180.6641 884,180.6641 L894,180.6641 " fill="none" style="stroke:#0000FF;stroke-width:3.0;"/><path d="M653,112.3984 L663,112.3984 C678,112.3984 678,180.6641 693,180.6641 L703,180.6641 " fill="none" style="stroke:#0000FF;stroke-width:3.0;"/><rect fill="#FEFECE" filter="url(#ff2mnvxqu9gs2)" height="48.2656" rx="12.5" ry="12.5" style="stroke:#0000FF;stroke-width:1.5;" width="74" x="425" y="54.1328"/><text fill="#000000" font-family="sans-serif" font-size="24" lengthAdjust="spacing" textLength="54" x="435" y="87.3359">REPL</text><rect fill="#FEFECE" filter="url(#ff2mnvxqu9gs2)" height="48.2656" rx="12.5" ry="12.5" style="stroke:#0000FF;stroke-width:1.5;" width="254" x="121" y="20"/><text fill="#000000" font-family="sans-serif" font-size="24" lengthAdjust="spacing" textLength="234" x="131" y="53.2031">Short feedback loop</text><path d="M425,78.2656 L415,78.2656 C400,78.2656 400,44.1328 385,44.1328 L375,44.1328 " fill="none" style="stroke:#0000FF;stroke-width:3.0;"/><rect fill="#FEFECE" filter="url(#ff2mnvxqu9gs2)" height="48.2656" rx="12.5" ry="12.5" style="stroke:#0000FF;stroke-width:1.5;" width="222" x="153" y="88.2656"/><text fill="#000000" font-family="sans-serif" font-size="24" lengthAdjust="spacing" textLength="202" x="163" y="121.4688">Code exploration</text><path d="M425,78.2656 L415,78.2656 C400,78.2656 400,112.3984 385,112.3984 L375,112.3984 " fill="none" style="stroke:#0000FF;stroke-width:3.0;"/><path d="M549,112.3984 L539,112.3984 C524,112.3984 524,78.2656 509,78.2656 L499,78.2656 " fill="none" style="stroke:#0000FF;stroke-width:3.0;"/><rect fill="#90EE90" filter="url(#ff2mnvxqu9gs2)" height="48.2656" rx="12.5" ry="12.5" style="stroke:#0000FF;stroke-width:1.5;" width="192" x="307" y="156.5313"/><text fill="#000000" font-family="sans-serif" font-size="24" lengthAdjust="spacing" textLength="164" x="317" y="189.7344">Data-oriented</text><rect fill="#90EE90" filter="url(#ff2mnvxqu9gs2)" height="48.2656" rx="12.5" ry="12.5" style="stroke:#0000FF;stroke-width:1.5;" width="247" x="10" y="156.5313"/><text fill="#000000" font-family="sans-serif" font-size="24" lengthAdjust="spacing" textLength="219" x="20" y="189.7344">Reduce complexity</text><path d="M307,180.6641 L297,180.6641 C282,180.6641 282,180.6641 267,180.6641 L257,180.6641 " fill="none" style="stroke:#0000FF;stroke-width:3.0;"/><path d="M549,112.3984 L539,112.3984 C524,112.3984 524,180.6641 509,180.6641 L499,180.6641 " fill="none" style="stroke:#0000FF;stroke-width:3.0;"/><!--MD5=[e7039c8311066b4f9f5450d4ce0e8950]
@startmindmap
!include SkinParam.iuml

* Clojure
** Homoiconic
*** Extensibility
*** Structural editing
** Functional
*** Power of expression

left side

** REPL
*** Short feedback loop
*** Code exploration
** Data-oriented <<green>>
*** Reduce complexity <<green>>

@endmindmap

@startmindmap
<style>
mindmapDiagram {
  node {
    LineColor blue
    FontSize  24
  }
  arrow {
    LineColor blue
    LineThickness 3
  }
  .orange {
    BackgroundColor orange
  }
  .red {
    BackgroundColor red
  }

  .green {
    BackgroundColor lightgreen
  }

}
</style>

* Clojure
** Homoiconic
*** Extensibility
*** Structural editing
** Functional
*** Power of expression

left side

** REPL
*** Short feedback loop
*** Code exploration
** Data-oriented <<green>>
*** Reduce complexity <<green>>

@endmindmap

PlantUML version 1.2021.00(Sun Jan 10 12:25:05 IST 2021)
(GPL source distribution)
Java Runtime: Java(TM) SE Runtime Environment
JVM: Java HotSpot(TM) 64-Bit Server VM
Default Encoding: UTF-8
Language: en
Country: IL
--></g></svg>