<?xml version="1.0" encoding="UTF-8" standalone="no"?><svg xmlns="http://www.w3.org/2000/svg" xmlns:xlink="http://www.w3.org/1999/xlink" contentScriptType="application/ecmascript" contentStyleType="text/css" height="506px" preserveAspectRatio="none" style="width:377px;height:506px;" version="1.1" viewBox="0 0 377 506" width="377px" zoomAndPan="magnify"><defs><filter height="300%" id="f1df2hu1nv7uq7" width="300%" x="-1" y="-1"><feGaussianBlur result="blurOut" stdDeviation="2.0"/><feColorMatrix in="blurOut" result="blurOut2" type="matrix" values="0 0 0 0 0 0 0 0 0 0 0 0 0 0 0 0 0 0 .4 0"/><feOffset dx="4.0" dy="4.0" in="blurOut2" result="blurOut3"/><feBlend in="SourceGraphic" in2="blurOut3" mode="normal"/></filter></defs><g><!--MD5=[8e0f57273067c52b9dd93a564a737613]
class LibraryCode--><rect fill="#FEFECE" filter="url(#f1df2hu1nv7uq7)" height="48" id="LibraryCode" style="stroke: #0000FF; stroke-width: 1.5;" width="102" x="119" y="7"/><ellipse cx="134" cy="23" fill="#ADD8E6" rx="11" ry="11" style="stroke: #0000FF; stroke-width: 1.0;"/><path d="M133.2334,24.063 Q131.3823,23.3574 130.7266,22.5813 Q130.0708,21.8052 130.0708,20.4937 Q130.0708,18.8086 131.1499,17.8457 Q132.229,16.8828 134.1133,16.8828 Q134.9683,16.8828 135.8232,17.0779 Q136.6782,17.2729 137.5166,17.6548 L137.5166,20.0454 Q136.728,19.4893 135.9146,19.1987 Q135.1011,18.9082 134.3042,18.9082 Q133.416,18.9082 132.9429,19.2651 Q132.4697,19.6221 132.4697,20.2861 Q132.4697,20.8008 132.8142,21.137 Q133.1587,21.4731 134.2544,21.8799 L135.3086,22.2783 Q136.8027,22.8262 137.5083,23.731 Q138.2139,24.6357 138.2139,26.0137 Q138.2139,27.8896 137.1057,28.8152 Q135.9976,29.7407 133.7563,29.7407 Q132.835,29.7407 131.9094,29.5208 Q130.9839,29.3008 130.1206,28.8691 L130.1206,26.3374 Q131.1001,27.0347 132.0173,27.375 Q132.9346,27.7153 133.8311,27.7153 Q134.7358,27.7153 135.2339,27.3044 Q135.7319,26.8936 135.7319,26.1548 Q135.7319,25.5986 135.3999,25.1794 Q135.0679,24.7603 134.437,24.5195 Z "/><text fill="#000000" font-family="sans-serif" font-size="12" lengthAdjust="spacingAndGlyphs" textLength="70" x="148" y="27.5352">LibraryCode</text><line style="stroke: #0000FF; stroke-width: 1.5;" x1="120" x2="220" y1="39" y2="39"/><line style="stroke: #0000FF; stroke-width: 1.5;" x1="120" x2="220" y1="47" y2="47"/><!--MD5=[439646d728ab63266c031e8966319c59]
class CatalogCode--><rect fill="#FEFECE" filter="url(#f1df2hu1nv7uq7)" height="48" id="CatalogCode" style="stroke: #0000FF; stroke-width: 1.5;" width="105" x="117.5" y="115"/><ellipse cx="132.5" cy="131" fill="#ADD8E6" rx="11" ry="11" style="stroke: #0000FF; stroke-width: 1.0;"/><path d="M131.7334,132.063 Q129.8823,131.3574 129.2266,130.5813 Q128.5708,129.8052 128.5708,128.4937 Q128.5708,126.8086 129.6499,125.8457 Q130.729,124.8828 132.6133,124.8828 Q133.4683,124.8828 134.3232,125.0779 Q135.1782,125.2729 136.0166,125.6548 L136.0166,128.0454 Q135.228,127.4893 134.4146,127.1987 Q133.6011,126.9082 132.8042,126.9082 Q131.916,126.9082 131.4429,127.2651 Q130.9697,127.6221 130.9697,128.2861 Q130.9697,128.8008 131.3142,129.137 Q131.6587,129.4731 132.7544,129.8799 L133.8086,130.2783 Q135.3027,130.8262 136.0083,131.731 Q136.7139,132.6357 136.7139,134.0137 Q136.7139,135.8896 135.6057,136.8152 Q134.4976,137.7407 132.2563,137.7407 Q131.335,137.7407 130.4094,137.5208 Q129.4839,137.3008 128.6206,136.8691 L128.6206,134.3374 Q129.6001,135.0347 130.5173,135.375 Q131.4346,135.7153 132.3311,135.7153 Q133.2358,135.7153 133.7339,135.3044 Q134.2319,134.8936 134.2319,134.1548 Q134.2319,133.5986 133.8999,133.1794 Q133.5679,132.7603 132.937,132.5195 Z "/><text fill="#000000" font-family="sans-serif" font-size="12" lengthAdjust="spacingAndGlyphs" textLength="73" x="146.5" y="135.5352">CatalogCode</text><line style="stroke: #0000FF; stroke-width: 1.5;" x1="118.5" x2="221.5" y1="147" y2="147"/><line style="stroke: #0000FF; stroke-width: 1.5;" x1="118.5" x2="221.5" y1="155" y2="155"/><!--MD5=[584d5b14aa6fa515864e3101ac27949a]
class LibrarianCode--><rect fill="#FEFECE" filter="url(#f1df2hu1nv7uq7)" height="48" id="LibrarianCode" style="stroke: #0000FF; stroke-width: 1.5;" width="113" x="113.5" y="223"/><ellipse cx="128.5" cy="239" fill="#ADD8E6" rx="11" ry="11" style="stroke: #0000FF; stroke-width: 1.0;"/><path d="M127.7334,240.063 Q125.8823,239.3574 125.2266,238.5813 Q124.5708,237.8052 124.5708,236.4937 Q124.5708,234.8086 125.6499,233.8457 Q126.729,232.8828 128.6133,232.8828 Q129.4683,232.8828 130.3232,233.0779 Q131.1782,233.2729 132.0166,233.6548 L132.0166,236.0454 Q131.228,235.4893 130.4146,235.1987 Q129.6011,234.9082 128.8042,234.9082 Q127.916,234.9082 127.4429,235.2651 Q126.9697,235.6221 126.9697,236.2861 Q126.9697,236.8008 127.3142,237.137 Q127.6587,237.4731 128.7544,237.8799 L129.8086,238.2783 Q131.3027,238.8262 132.0083,239.731 Q132.7139,240.6357 132.7139,242.0137 Q132.7139,243.8896 131.6057,244.8152 Q130.4976,245.7407 128.2563,245.7407 Q127.335,245.7407 126.4094,245.5208 Q125.4839,245.3008 124.6206,244.8691 L124.6206,242.3374 Q125.6001,243.0347 126.5173,243.375 Q127.4346,243.7153 128.3311,243.7153 Q129.2358,243.7153 129.7339,243.3044 Q130.2319,242.8936 130.2319,242.1548 Q130.2319,241.5986 129.8999,241.1794 Q129.5679,240.7603 128.937,240.5195 Z "/><text fill="#000000" font-family="sans-serif" font-size="12" lengthAdjust="spacingAndGlyphs" textLength="81" x="142.5" y="243.5352">LibrarianCode</text><line style="stroke: #0000FF; stroke-width: 1.5;" x1="114.5" x2="225.5" y1="255" y2="255"/><line style="stroke: #0000FF; stroke-width: 1.5;" x1="114.5" x2="225.5" y1="263" y2="263"/><!--MD5=[dc8a9b75b4f497878a8f9a315c321d9f]
class MemberCode--><rect fill="#FEFECE" filter="url(#f1df2hu1nv7uq7)" height="48" id="MemberCode" style="stroke: #0000FF; stroke-width: 1.5;" width="110" x="7" y="331"/><ellipse cx="22" cy="347" fill="#ADD8E6" rx="11" ry="11" style="stroke: #0000FF; stroke-width: 1.0;"/><path d="M21.2334,348.063 Q19.3823,347.3574 18.7266,346.5813 Q18.0708,345.8052 18.0708,344.4937 Q18.0708,342.8086 19.1499,341.8457 Q20.229,340.8828 22.1133,340.8828 Q22.9683,340.8828 23.8232,341.0779 Q24.6782,341.2729 25.5166,341.6548 L25.5166,344.0454 Q24.728,343.4893 23.9146,343.1987 Q23.1011,342.9082 22.3042,342.9082 Q21.416,342.9082 20.9429,343.2651 Q20.4697,343.6221 20.4697,344.2861 Q20.4697,344.8008 20.8142,345.137 Q21.1587,345.4731 22.2544,345.8799 L23.3086,346.2783 Q24.8027,346.8262 25.5083,347.731 Q26.2139,348.6357 26.2139,350.0137 Q26.2139,351.8896 25.1057,352.8152 Q23.9976,353.7407 21.7563,353.7407 Q20.835,353.7407 19.9094,353.5208 Q18.9839,353.3008 18.1206,352.8691 L18.1206,350.3374 Q19.1001,351.0347 20.0173,351.375 Q20.9346,351.7153 21.8311,351.7153 Q22.7358,351.7153 23.2339,351.3044 Q23.7319,350.8936 23.7319,350.1548 Q23.7319,349.5986 23.3999,349.1794 Q23.0679,348.7603 22.437,348.5195 Z "/><text fill="#000000" font-family="sans-serif" font-size="12" lengthAdjust="spacingAndGlyphs" textLength="78" x="36" y="351.5352">MemberCode</text><line style="stroke: #0000FF; stroke-width: 1.5;" x1="8" x2="116" y1="363" y2="363"/><line style="stroke: #0000FF; stroke-width: 1.5;" x1="8" x2="116" y1="371" y2="371"/><!--MD5=[0513754fd7d1c2db156042e4bb35e895]
class BookItemCode--><rect fill="#FEFECE" filter="url(#f1df2hu1nv7uq7)" height="48" id="BookItemCode" style="stroke: #0000FF; stroke-width: 1.5;" width="115" x="58.5" y="439"/><ellipse cx="73.5" cy="455" fill="#ADD8E6" rx="11" ry="11" style="stroke: #0000FF; stroke-width: 1.0;"/><path d="M72.7334,456.063 Q70.8823,455.3574 70.2266,454.5813 Q69.5708,453.8052 69.5708,452.4937 Q69.5708,450.8086 70.6499,449.8457 Q71.729,448.8828 73.6133,448.8828 Q74.4683,448.8828 75.3232,449.0779 Q76.1782,449.2729 77.0166,449.6548 L77.0166,452.0454 Q76.228,451.4893 75.4146,451.1987 Q74.6011,450.9082 73.8042,450.9082 Q72.916,450.9082 72.4429,451.2651 Q71.9697,451.6221 71.9697,452.2861 Q71.9697,452.8008 72.3142,453.137 Q72.6587,453.4731 73.7544,453.8799 L74.8086,454.2783 Q76.3027,454.8262 77.0083,455.731 Q77.7139,456.6357 77.7139,458.0137 Q77.7139,459.8896 76.6057,460.8152 Q75.4976,461.7407 73.2563,461.7407 Q72.335,461.7407 71.4094,461.5208 Q70.4839,461.3008 69.6206,460.8691 L69.6206,458.3374 Q70.6001,459.0347 71.5173,459.375 Q72.4346,459.7153 73.3311,459.7153 Q74.2358,459.7153 74.7339,459.3044 Q75.2319,458.8936 75.2319,458.1548 Q75.2319,457.5986 74.8999,457.1794 Q74.5679,456.7603 73.937,456.5195 Z "/><text fill="#000000" font-family="sans-serif" font-size="12" lengthAdjust="spacingAndGlyphs" textLength="83" x="87.5" y="459.5352">BookItemCode</text><line style="stroke: #0000FF; stroke-width: 1.5;" x1="59.5" x2="172.5" y1="471" y2="471"/><line style="stroke: #0000FF; stroke-width: 1.5;" x1="59.5" x2="172.5" y1="479" y2="479"/><!--MD5=[290f797214b2fc984a07e822ba88578f]
class BookLendingCode--><rect fill="#FEFECE" filter="url(#f1df2hu1nv7uq7)" height="48" id="BookLendingCode" style="stroke: #0000FF; stroke-width: 1.5;" width="135" x="223.5" y="331"/><ellipse cx="238.5" cy="347" fill="#ADD8E6" rx="11" ry="11" style="stroke: #0000FF; stroke-width: 1.0;"/><path d="M237.7334,348.063 Q235.8823,347.3574 235.2266,346.5813 Q234.5708,345.8052 234.5708,344.4937 Q234.5708,342.8086 235.6499,341.8457 Q236.729,340.8828 238.6133,340.8828 Q239.4683,340.8828 240.3232,341.0779 Q241.1782,341.2729 242.0166,341.6548 L242.0166,344.0454 Q241.228,343.4893 240.4146,343.1987 Q239.6011,342.9082 238.8042,342.9082 Q237.916,342.9082 237.4429,343.2651 Q236.9697,343.6221 236.9697,344.2861 Q236.9697,344.8008 237.3142,345.137 Q237.6587,345.4731 238.7544,345.8799 L239.8086,346.2783 Q241.3027,346.8262 242.0083,347.731 Q242.7139,348.6357 242.7139,350.0137 Q242.7139,351.8896 241.6057,352.8152 Q240.4976,353.7407 238.2563,353.7407 Q237.335,353.7407 236.4094,353.5208 Q235.4839,353.3008 234.6206,352.8691 L234.6206,350.3374 Q235.6001,351.0347 236.5173,351.375 Q237.4346,351.7153 238.3311,351.7153 Q239.2358,351.7153 239.7339,351.3044 Q240.2319,350.8936 240.2319,350.1548 Q240.2319,349.5986 239.8999,349.1794 Q239.5679,348.7603 238.937,348.5195 Z "/><text fill="#000000" font-family="sans-serif" font-size="12" lengthAdjust="spacingAndGlyphs" textLength="103" x="252.5" y="351.5352">BookLendingCode</text><line style="stroke: #0000FF; stroke-width: 1.5;" x1="224.5" x2="357.5" y1="363" y2="363"/><line style="stroke: #0000FF; stroke-width: 1.5;" x1="224.5" x2="357.5" y1="371" y2="371"/><!--MD5=[5a9a7b6d94f503f59588cd4f0758316a]
link LibraryCode to CatalogCode--><path d="M170,55 C170,71 170,92.45 170,109.53 " fill="none" id="LibraryCode-&gt;CatalogCode" style="stroke: #0000FF; stroke-width: 1.0; stroke-dasharray: 7.0,7.0;"/><polygon fill="#0000FF" points="170,114.68,174,105.68,170,109.68,166,105.68,170,114.68" style="stroke: #0000FF; stroke-width: 1.0;"/><!--MD5=[50e6760be8ecd751afd618dd2f5378c6]
link CatalogCode to LibrarianCode--><path d="M170,163 C170,179 170,200.45 170,217.53 " fill="none" id="CatalogCode-&gt;LibrarianCode" style="stroke: #0000FF; stroke-width: 1.0; stroke-dasharray: 7.0,7.0;"/><polygon fill="#0000FF" points="170,222.68,174,213.68,170,217.68,166,213.68,170,222.68" style="stroke: #0000FF; stroke-width: 1.0;"/><!--MD5=[64172a9737669409150bd8b06c5f1a50]
link MemberCode to BookItemCode--><path d="M73.72,379 C81.94,395.14 92.98,416.82 101.72,433.97 " fill="none" id="MemberCode-&gt;BookItemCode" style="stroke: #0000FF; stroke-width: 1.0; stroke-dasharray: 7.0,7.0;"/><polygon fill="#0000FF" points="104.12,438.68,103.5974,428.845,101.8497,434.2251,96.4696,432.4774,104.12,438.68" style="stroke: #0000FF; stroke-width: 1.0;"/><!--MD5=[9c1dde0160a90c888f67e3b65bb5d4a2]
link LibrarianCode to BookLendingCode--><path d="M196.26,271 C215.15,287.55 240.7,309.93 260.5,327.28 " fill="none" id="LibrarianCode-&gt;BookLendingCode" style="stroke: #0000FF; stroke-width: 1.0; stroke-dasharray: 7.0,7.0;"/><polygon fill="#0000FF" points="264.38,330.68,260.2576,321.7354,260.6233,327.3804,254.9783,327.7461,264.38,330.68" style="stroke: #0000FF; stroke-width: 1.0;"/><!--MD5=[150d6ab0b8d51287c7a887240e648cae]
link LibrarianCode to BookItemCode--><path d="M164.12,271.31 C154.14,310.87 133.92,390.99 123.14,433.7 " fill="none" id="LibrarianCode-&gt;BookItemCode" style="stroke: #0000FF; stroke-width: 1.0; stroke-dasharray: 7.0,7.0;"/><polygon fill="#0000FF" points="121.87,438.72,127.9603,430.9799,123.0995,433.8735,120.2059,429.0127,121.87,438.72" style="stroke: #0000FF; stroke-width: 1.0;"/><!--MD5=[e447a4116f1dbd1e18f0b49b86d55e1f]
link LibrarianCode to MemberCode--><path d="M146.57,271 C129.84,287.42 107.28,309.56 89.67,326.84 " fill="none" id="LibrarianCode-&gt;MemberCode" style="stroke: #0000FF; stroke-width: 1.0; stroke-dasharray: 7.0,7.0;"/><polygon fill="#0000FF" points="85.76,330.68,94.9806,327.2187,89.3239,327.1731,89.3695,321.5164,85.76,330.68" style="stroke: #0000FF; stroke-width: 1.0;"/><!--MD5=[ce4d71c50de94866975a99961c6b75df]
@startuml
!include SkinParamClass.iuml

LibraryCode      ..> CatalogCode
CatalogCode      ..> LibrarianCode


MemberCode      ..> BookItemCode

LibrarianCode    ..> BookLendingCode
LibrarianCode    ..> BookItemCode
LibrarianCode    ..> MemberCode

class LibraryCode << (S, lightblue) >>
class CatalogCode << (S, lightblue) >>
class LibrarianCode << (S, lightblue) >>
class MemberCode << (S, lightblue) >>
class BookLendingCode << (S, lightblue) >>
class BookItemCode << (S, lightblue) >>


@enduml

@startuml
skinparam class {
  ArrowColor Blue
  BorderColor Blue
}

LibraryCode      ..> CatalogCode
CatalogCode      ..> LibrarianCode


MemberCode      ..> BookItemCode

LibrarianCode    ..> BookLendingCode
LibrarianCode    ..> BookItemCode
LibrarianCode    ..> MemberCode

class LibraryCode << (S, lightblue) >>
class CatalogCode << (S, lightblue) >>
class LibrarianCode << (S, lightblue) >>
class MemberCode << (S, lightblue) >>
class BookLendingCode << (S, lightblue) >>
class BookItemCode << (S, lightblue) >>


@enduml

PlantUML version 1.2020.15(Sun Jun 28 14:39:45 IDT 2020)
(GPL source distribution)
Java Runtime: Java(TM) SE Runtime Environment
JVM: Java HotSpot(TM) 64-Bit Server VM
Default Encoding: US-ASCII
Language: en
Country: IL
--></g></svg>