<?xml version="1.0" encoding="UTF-8" standalone="no"?><svg xmlns="http://www.w3.org/2000/svg" xmlns:xlink="http://www.w3.org/1999/xlink" contentScriptType="application/ecmascript" contentStyleType="text/css" height="614px" preserveAspectRatio="none" style="width:439px;height:614px;" version="1.1" viewBox="0 0 439 614" width="439px" zoomAndPan="magnify"><defs><filter height="300%" id="fo28eru9rsm9t" width="300%" x="-1" y="-1"><feGaussianBlur result="blurOut" stdDeviation="2.0"/><feColorMatrix in="blurOut" result="blurOut2" type="matrix" values="0 0 0 0 0 0 0 0 0 0 0 0 0 0 0 0 0 0 .4 0"/><feOffset dx="4.0" dy="4.0" in="blurOut2" result="blurOut3"/><feBlend in="SourceGraphic" in2="blurOut3" mode="normal"/></filter></defs><g><!--MD5=[1681db427d861294dc4bf59cd2c200d7]
class Library--><rect fill="#FEFECE" filter="url(#fo28eru9rsm9t)" height="48" id="Library" style="stroke: #0000FF; stroke-width: 1.5;" width="72" x="137.57" y="7"/><ellipse cx="152.57" cy="23" fill="#ADD1B2" rx="11" ry="11" style="stroke: #0000FF; stroke-width: 1.0;"/><path d="M155.0431,29.1431 Q154.4621,29.4419 153.8229,29.5913 Q153.1838,29.7407 152.4782,29.7407 Q149.9714,29.7407 148.6515,28.0889 Q147.3317,26.437 147.3317,23.3159 Q147.3317,20.1865 148.6515,18.5347 Q149.9714,16.8828 152.4782,16.8828 Q153.1838,16.8828 153.8312,17.0322 Q154.4787,17.1816 155.0431,17.4805 L155.0431,20.2031 Q154.4123,19.6221 153.8188,19.3523 Q153.2253,19.0825 152.5944,19.0825 Q151.2497,19.0825 150.5649,20.1492 Q149.8801,21.2158 149.8801,23.3159 Q149.8801,25.4077 150.5649,26.4744 Q151.2497,27.541 152.5944,27.541 Q153.2253,27.541 153.8188,27.2712 Q154.4123,27.0015 155.0431,26.4204 Z "/><text fill="#000000" font-family="sans-serif" font-size="12" lengthAdjust="spacingAndGlyphs" textLength="40" x="166.57" y="27.5352">Library</text><line style="stroke: #0000FF; stroke-width: 1.5;" x1="138.57" x2="208.57" y1="39" y2="39"/><line style="stroke: #0000FF; stroke-width: 1.5;" x1="138.57" x2="208.57" y1="47" y2="47"/><!--MD5=[b582e6ce3c86f1934c1c2f1f310142ca]
class Catalog--><rect fill="#FEFECE" filter="url(#fo28eru9rsm9t)" height="48" id="Catalog" style="stroke: #0000FF; stroke-width: 1.5;" width="75" x="227.07" y="115"/><ellipse cx="242.07" cy="131" fill="#ADD1B2" rx="11" ry="11" style="stroke: #0000FF; stroke-width: 1.0;"/><path d="M244.5431,137.1431 Q243.9621,137.4419 243.3229,137.5913 Q242.6838,137.7407 241.9782,137.7407 Q239.4714,137.7407 238.1515,136.0889 Q236.8317,134.437 236.8317,131.3159 Q236.8317,128.1865 238.1515,126.5347 Q239.4714,124.8828 241.9782,124.8828 Q242.6838,124.8828 243.3312,125.0322 Q243.9787,125.1816 244.5431,125.4805 L244.5431,128.2031 Q243.9123,127.6221 243.3188,127.3523 Q242.7253,127.0825 242.0944,127.0825 Q240.7497,127.0825 240.0649,128.1492 Q239.3801,129.2158 239.3801,131.3159 Q239.3801,133.4077 240.0649,134.4744 Q240.7497,135.541 242.0944,135.541 Q242.7253,135.541 243.3188,135.2712 Q243.9123,135.0015 244.5431,134.4204 Z "/><text fill="#000000" font-family="sans-serif" font-size="12" lengthAdjust="spacingAndGlyphs" textLength="43" x="256.07" y="135.5352">Catalog</text><line style="stroke: #0000FF; stroke-width: 1.5;" x1="228.07" x2="301.07" y1="147" y2="147"/><line style="stroke: #0000FF; stroke-width: 1.5;" x1="228.07" x2="301.07" y1="155" y2="155"/><!--MD5=[189f5ea1ad3e2a40d497b4be23a6c96d]
class Librarian--><rect fill="#FEFECE" filter="url(#fo28eru9rsm9t)" height="48" id="Librarian" style="stroke: #0000FF; stroke-width: 1.5;" width="83" x="133.07" y="223"/><ellipse cx="148.07" cy="239" fill="#ADD1B2" rx="11" ry="11" style="stroke: #0000FF; stroke-width: 1.0;"/><path d="M150.5431,245.1431 Q149.9621,245.4419 149.3229,245.5913 Q148.6838,245.7407 147.9782,245.7407 Q145.4714,245.7407 144.1515,244.0889 Q142.8317,242.437 142.8317,239.3159 Q142.8317,236.1865 144.1515,234.5347 Q145.4714,232.8828 147.9782,232.8828 Q148.6838,232.8828 149.3312,233.0322 Q149.9787,233.1816 150.5431,233.4805 L150.5431,236.2031 Q149.9123,235.6221 149.3188,235.3523 Q148.7253,235.0825 148.0944,235.0825 Q146.7497,235.0825 146.0649,236.1492 Q145.3801,237.2158 145.3801,239.3159 Q145.3801,241.4077 146.0649,242.4744 Q146.7497,243.541 148.0944,243.541 Q148.7253,243.541 149.3188,243.2712 Q149.9123,243.0015 150.5431,242.4204 Z "/><text fill="#000000" font-family="sans-serif" font-size="12" lengthAdjust="spacingAndGlyphs" textLength="51" x="162.07" y="243.5352">Librarian</text><line style="stroke: #0000FF; stroke-width: 1.5;" x1="134.07" x2="215.07" y1="255" y2="255"/><line style="stroke: #0000FF; stroke-width: 1.5;" x1="134.07" x2="215.07" y1="263" y2="263"/><!--MD5=[f58fd777f29c17413488bea9e7cfcca3]
class Member--><rect fill="#FEFECE" filter="url(#fo28eru9rsm9t)" height="48" id="Member" style="stroke: #0000FF; stroke-width: 1.5;" width="80" x="22.57" y="331"/><ellipse cx="37.57" cy="347" fill="#ADD1B2" rx="11" ry="11" style="stroke: #0000FF; stroke-width: 1.0;"/><path d="M40.0431,353.1431 Q39.4621,353.4419 38.8229,353.5913 Q38.1838,353.7407 37.4782,353.7407 Q34.9714,353.7407 33.6515,352.0889 Q32.3317,350.437 32.3317,347.3159 Q32.3317,344.1865 33.6515,342.5347 Q34.9714,340.8828 37.4782,340.8828 Q38.1838,340.8828 38.8312,341.0322 Q39.4787,341.1816 40.0431,341.4805 L40.0431,344.2031 Q39.4123,343.6221 38.8188,343.3523 Q38.2253,343.0825 37.5944,343.0825 Q36.2497,343.0825 35.5649,344.1492 Q34.8801,345.2158 34.8801,347.3159 Q34.8801,349.4077 35.5649,350.4744 Q36.2497,351.541 37.5944,351.541 Q38.2253,351.541 38.8188,351.2712 Q39.4123,351.0015 40.0431,350.4204 Z "/><text fill="#000000" font-family="sans-serif" font-size="12" lengthAdjust="spacingAndGlyphs" textLength="48" x="51.57" y="351.5352">Member</text><line style="stroke: #0000FF; stroke-width: 1.5;" x1="23.57" x2="101.57" y1="363" y2="363"/><line style="stroke: #0000FF; stroke-width: 1.5;" x1="23.57" x2="101.57" y1="371" y2="371"/><!--MD5=[84e3a5e42879fb3231104d3c8e592439]
class Book--><rect fill="#FEFECE" filter="url(#fo28eru9rsm9t)" height="48" id="Book" style="stroke: #0000FF; stroke-width: 1.5;" width="60" x="267.57" y="223"/><ellipse cx="282.57" cy="239" fill="#ADD1B2" rx="11" ry="11" style="stroke: #0000FF; stroke-width: 1.0;"/><path d="M285.0431,245.1431 Q284.4621,245.4419 283.8229,245.5913 Q283.1838,245.7407 282.4782,245.7407 Q279.9714,245.7407 278.6515,244.0889 Q277.3317,242.437 277.3317,239.3159 Q277.3317,236.1865 278.6515,234.5347 Q279.9714,232.8828 282.4782,232.8828 Q283.1838,232.8828 283.8312,233.0322 Q284.4787,233.1816 285.0431,233.4805 L285.0431,236.2031 Q284.4123,235.6221 283.8188,235.3523 Q283.2253,235.0825 282.5944,235.0825 Q281.2497,235.0825 280.5649,236.1492 Q279.8801,237.2158 279.8801,239.3159 Q279.8801,241.4077 280.5649,242.4744 Q281.2497,243.541 282.5944,243.541 Q283.2253,243.541 283.8188,243.2712 Q284.4123,243.0015 285.0431,242.4204 Z "/><text fill="#000000" font-family="sans-serif" font-size="12" lengthAdjust="spacingAndGlyphs" textLength="28" x="296.57" y="243.5352">Book</text><line style="stroke: #0000FF; stroke-width: 1.5;" x1="268.57" x2="326.57" y1="255" y2="255"/><line style="stroke: #0000FF; stroke-width: 1.5;" x1="268.57" x2="326.57" y1="263" y2="263"/><!--MD5=[99878402f68a39d6f1ed06873c860315]
class BookItem--><rect fill="#FEFECE" filter="url(#fo28eru9rsm9t)" height="48" id="BookItem" style="stroke: #0000FF; stroke-width: 1.5;" width="85" x="88.07" y="439"/><ellipse cx="103.07" cy="455" fill="#ADD1B2" rx="11" ry="11" style="stroke: #0000FF; stroke-width: 1.0;"/><path d="M105.5431,461.1431 Q104.9621,461.4419 104.3229,461.5913 Q103.6838,461.7407 102.9782,461.7407 Q100.4714,461.7407 99.1515,460.0889 Q97.8317,458.437 97.8317,455.3159 Q97.8317,452.1865 99.1515,450.5347 Q100.4714,448.8828 102.9782,448.8828 Q103.6838,448.8828 104.3312,449.0322 Q104.9787,449.1816 105.5431,449.4805 L105.5431,452.2031 Q104.9123,451.6221 104.3188,451.3523 Q103.7253,451.0825 103.0944,451.0825 Q101.7497,451.0825 101.0649,452.1492 Q100.3801,453.2158 100.3801,455.3159 Q100.3801,457.4077 101.0649,458.4744 Q101.7497,459.541 103.0944,459.541 Q103.7253,459.541 104.3188,459.2712 Q104.9123,459.0015 105.5431,458.4204 Z "/><text fill="#000000" font-family="sans-serif" font-size="12" lengthAdjust="spacingAndGlyphs" textLength="53" x="117.07" y="459.5352">BookItem</text><line style="stroke: #0000FF; stroke-width: 1.5;" x1="89.07" x2="172.07" y1="471" y2="471"/><line style="stroke: #0000FF; stroke-width: 1.5;" x1="89.07" x2="172.07" y1="479" y2="479"/><!--MD5=[c3f280b58e8dd0683e81b8ec31306a35]
class Author--><rect fill="#FEFECE" filter="url(#fo28eru9rsm9t)" height="48" id="Author" style="stroke: #0000FF; stroke-width: 1.5;" width="70" x="350.57" y="331"/><ellipse cx="365.57" cy="347" fill="#ADD1B2" rx="11" ry="11" style="stroke: #0000FF; stroke-width: 1.0;"/><path d="M368.0431,353.1431 Q367.4621,353.4419 366.8229,353.5913 Q366.1838,353.7407 365.4782,353.7407 Q362.9714,353.7407 361.6515,352.0889 Q360.3317,350.437 360.3317,347.3159 Q360.3317,344.1865 361.6515,342.5347 Q362.9714,340.8828 365.4782,340.8828 Q366.1838,340.8828 366.8312,341.0322 Q367.4787,341.1816 368.0431,341.4805 L368.0431,344.2031 Q367.4123,343.6221 366.8188,343.3523 Q366.2253,343.0825 365.5944,343.0825 Q364.2497,343.0825 363.5649,344.1492 Q362.8801,345.2158 362.8801,347.3159 Q362.8801,349.4077 363.5649,350.4744 Q364.2497,351.541 365.5944,351.541 Q366.2253,351.541 366.8188,351.2712 Q367.4123,351.0015 368.0431,350.4204 Z "/><text fill="#000000" font-family="sans-serif" font-size="12" lengthAdjust="spacingAndGlyphs" textLength="38" x="379.57" y="351.5352">Author</text><line style="stroke: #0000FF; stroke-width: 1.5;" x1="351.57" x2="419.57" y1="363" y2="363"/><line style="stroke: #0000FF; stroke-width: 1.5;" x1="351.57" x2="419.57" y1="371" y2="371"/><!--MD5=[0b3f98415c25b5154844c5113d9d0aac]
class BookLending--><rect fill="#FEFECE" filter="url(#fo28eru9rsm9t)" height="48" id="BookLending" style="stroke: #0000FF; stroke-width: 1.5;" width="105" x="78.07" y="547"/><ellipse cx="93.07" cy="563" fill="#ADD1B2" rx="11" ry="11" style="stroke: #0000FF; stroke-width: 1.0;"/><path d="M95.5431,569.1431 Q94.9621,569.4419 94.3229,569.5913 Q93.6838,569.7407 92.9782,569.7407 Q90.4714,569.7407 89.1515,568.0889 Q87.8317,566.437 87.8317,563.3159 Q87.8317,560.1865 89.1515,558.5347 Q90.4714,556.8828 92.9782,556.8828 Q93.6838,556.8828 94.3312,557.0322 Q94.9787,557.1816 95.5431,557.4805 L95.5431,560.2031 Q94.9123,559.6221 94.3188,559.3523 Q93.7253,559.0825 93.0944,559.0825 Q91.7497,559.0825 91.0649,560.1492 Q90.3801,561.2158 90.3801,563.3159 Q90.3801,565.4077 91.0649,566.4744 Q91.7497,567.541 93.0944,567.541 Q93.7253,567.541 94.3188,567.2712 Q94.9123,567.0015 95.5431,566.4204 Z "/><text fill="#000000" font-family="sans-serif" font-size="12" lengthAdjust="spacingAndGlyphs" textLength="73" x="107.07" y="567.5352">BookLending</text><line style="stroke: #0000FF; stroke-width: 1.5;" x1="79.07" x2="182.07" y1="579" y2="579"/><line style="stroke: #0000FF; stroke-width: 1.5;" x1="79.07" x2="182.07" y1="587" y2="587"/><!--MD5=[3fd616f346a44cd59a91eb10b19e157c]
class User--><rect fill="#FEFECE" filter="url(#fo28eru9rsm9t)" height="48" id="User" style="stroke: #0000FF; stroke-width: 1.5;" width="58" x="62.57" y="115"/><ellipse cx="77.57" cy="131" fill="#ADD1B2" rx="11" ry="11" style="stroke: #0000FF; stroke-width: 1.0;"/><path d="M80.0431,137.1431 Q79.4621,137.4419 78.8229,137.5913 Q78.1838,137.7407 77.4782,137.7407 Q74.9714,137.7407 73.6515,136.0889 Q72.3317,134.437 72.3317,131.3159 Q72.3317,128.1865 73.6515,126.5347 Q74.9714,124.8828 77.4782,124.8828 Q78.1838,124.8828 78.8312,125.0322 Q79.4787,125.1816 80.0431,125.4805 L80.0431,128.2031 Q79.4123,127.6221 78.8188,127.3523 Q78.2253,127.0825 77.5944,127.0825 Q76.2497,127.0825 75.5649,128.1492 Q74.8801,129.2158 74.8801,131.3159 Q74.8801,133.4077 75.5649,134.4744 Q76.2497,135.541 77.5944,135.541 Q78.2253,135.541 78.8188,135.2712 Q79.4123,135.0015 80.0431,134.4204 Z "/><text fill="#000000" font-family="sans-serif" font-size="12" lengthAdjust="spacingAndGlyphs" textLength="26" x="91.57" y="135.5352">User</text><line style="stroke: #0000FF; stroke-width: 1.5;" x1="63.57" x2="119.57" y1="147" y2="147"/><line style="stroke: #0000FF; stroke-width: 1.5;" x1="63.57" x2="119.57" y1="155" y2="155"/><!--MD5=[ad34ed250eea131b1e76c40d7aab2cb7]
reverse link Library to Catalog--><path d="M201.97,65.08 C215.79,81.17 232.06,100.13 244.55,114.68 " fill="none" id="Library&lt;-Catalog" style="stroke: #0000FF; stroke-width: 1.0;"/><polygon fill="#0000FF" points="193.32,55,194.192,62.1582,201.1349,64.1064,200.2629,56.9482,193.32,55" style="stroke: #0000FF; stroke-width: 1.0;"/><!--MD5=[dd714e4f57929769b4771ecb78735759]
reverse link Library to Librarian--><path d="M173.74,68.54 C173.95,112.68 174.29,185.59 174.46,222.72 " fill="none" id="Library&lt;-Librarian" style="stroke: #0000FF; stroke-width: 1.0;"/><polygon fill="#0000FF" points="173.68,55.31,169.7064,61.3275,173.7327,67.3099,177.7063,61.2924,173.68,55.31" style="stroke: #0000FF; stroke-width: 1.0;"/><text fill="#000000" font-family="sans-serif" font-size="13" lengthAdjust="spacingAndGlyphs" textLength="6" x="167.6631" y="212.1845">*</text><!--MD5=[df800099061e4cb2c499a9444bff5aa4]
reverse link Library to Member--><path d="M125.45,49.15 C96.37,62.3 61.7,83.6 44.57,115 C6,185.68 36.02,286.06 52.98,330.86 " fill="none" id="Library&lt;-Member" style="stroke: #0000FF; stroke-width: 1.0;"/><polygon fill="#0000FF" points="137.51,44,130.4204,42.6818,126.4769,48.7191,133.5665,50.0373,137.51,44" style="stroke: #0000FF; stroke-width: 1.0;"/><text fill="#000000" font-family="sans-serif" font-size="13" lengthAdjust="spacingAndGlyphs" textLength="6" x="43.7538" y="320.3604">*</text><!--MD5=[3e3e8b1d9cb9f918dc52134aab1fbbd0]
link Catalog to Librarian--><path d="M245.04,163 C231.1,179.42 212.3,201.56 197.63,218.84 " fill="none" id="Catalog-&gt;Librarian" style="stroke: #0000FF; stroke-width: 1.0; stroke-dasharray: 7.0,7.0;"/><polygon fill="#0000FF" points="194.37,222.68,203.2471,218.4141,197.6087,218.8707,197.1521,213.2323,194.37,222.68" style="stroke: #0000FF; stroke-width: 1.0;"/><!--MD5=[739b98e45aca09f5b03b35ac002ef907]
reverse link Catalog to Book--><path d="M275.74,175.87 C280.55,191.33 286.04,208.96 290.31,222.68 " fill="none" id="Catalog&lt;-Book" style="stroke: #0000FF; stroke-width: 1.0;"/><polygon fill="#0000FF" points="271.73,163,269.6976,169.9188,275.3025,174.4559,277.3349,167.5371,271.73,163" style="stroke: #0000FF; stroke-width: 1.0;"/><text fill="#000000" font-family="sans-serif" font-size="13" lengthAdjust="spacingAndGlyphs" textLength="6" x="281.6809" y="212.1343">*</text><!--MD5=[465641d822bfeba45c18d0b6d8652244]
reverse link Book to BookItem--><path d="M271.26,281.72 C237.09,325.5 178.34,400.79 148.74,438.72 " fill="none" id="Book&lt;-BookItem" style="stroke: #0000FF; stroke-width: 1.0;"/><polygon fill="#0000FF" points="279.38,271.31,272.5343,273.5765,271.9936,280.7673,278.8392,278.5008,279.38,271.31" style="stroke: #0000FF; stroke-width: 1.0;"/><text fill="#000000" font-family="sans-serif" font-size="13" lengthAdjust="spacingAndGlyphs" textLength="6" x="146.6273" y="428.1845">*</text><!--MD5=[708ece48ef120737d1cb93104a627dff]
link Book to Author--><path d="M324.324,280.2338 C324.324,280.2338 358.5524,321.4409 358.5524,321.4409 " fill="none" id="Book-Author" style="stroke: #0000FF; stroke-width: 1.0;"/><polygon fill="#FFFFFF" points="366.21,330.68,365.4609,323.5079,358.5524,321.4409,359.3015,328.6129,366.21,330.68" style="stroke: #0000FF; stroke-width: 1.0;"/><polygon fill="#FFFFFF" points="316.66,271,317.4141,278.1716,324.324,280.2338,323.5699,273.0622,316.66,271" style="stroke: #0000FF; stroke-width: 1.0;"/><text fill="#000000" font-family="sans-serif" font-size="13" lengthAdjust="spacingAndGlyphs" textLength="6" x="314.7831" y="291.68">*</text><text fill="#000000" font-family="sans-serif" font-size="13" lengthAdjust="spacingAndGlyphs" textLength="6" x="354.4802" y="320.1343">*</text><!--MD5=[99542b546b70925d14d3c102fe313220]
reverse link BookItem to BookLending--><path d="M130.57,500.34 C130.57,515.68 130.57,533.1 130.57,546.68 " fill="none" id="BookItem&lt;-BookLending" style="stroke: #0000FF; stroke-width: 1.0;"/><polygon fill="#0000FF" points="130.57,487,126.57,493,130.57,499,134.57,493,130.57,487" style="stroke: #0000FF; stroke-width: 1.0;"/><!--MD5=[5dc1dd10f8b5be370be2a630fce0ab9d]
reverse link User to Member--><path d="M87.73,168.33 C81.94,211.06 71.08,291.18 65.72,330.72 " fill="none" id="User&lt;-Member" style="stroke: #0000FF; stroke-width: 1.0;"/><polygon fill="#0000FF" points="88.41,163.31,83.235,171.6897,87.737,168.2645,91.1622,172.7665,88.41,163.31" style="stroke: #0000FF; stroke-width: 1.0;"/><!--MD5=[34aa3fc2c759b5c1b6ce138accc17b0d]
reverse link Member to BookLending--><path d="M59.46,392.07 C58.39,419.01 59.59,456.31 70.57,487 C78.59,509.43 94.66,531.12 108.14,546.7 " fill="none" id="Member&lt;-BookLending" style="stroke: #0000FF; stroke-width: 1.0;"/><polygon fill="#0000FF" points="60.19,379.02,55.8662,384.791,59.5302,391.0018,63.8541,385.2309,60.19,379.02" style="stroke: #0000FF; stroke-width: 1.0;"/><text fill="#000000" font-family="sans-serif" font-size="13" lengthAdjust="spacingAndGlyphs" textLength="6" x="95.6236" y="536.1594">*</text><!--MD5=[c14cf0bd013c8a942e85dd951923bcfd]
link Member to BookItem--><path d="M77.32,379 C87.77,395.28 101.82,417.19 112.87,434.41 " fill="none" id="Member-&gt;BookItem" style="stroke: #0000FF; stroke-width: 1.0; stroke-dasharray: 7.0,7.0;"/><polygon fill="#0000FF" points="115.61,438.68,114.1079,428.9464,112.9062,434.4741,107.3785,433.2724,115.61,438.68" style="stroke: #0000FF; stroke-width: 1.0;"/><!--MD5=[578c7a2e6300e5e45fcbb653fc899b0f]
reverse link User to Librarian--><path d="M112.91,167.25 C126.35,184.41 143.5,206.33 156.31,222.68 " fill="none" id="User&lt;-Librarian" style="stroke: #0000FF; stroke-width: 1.0;"/><polygon fill="#0000FF" points="109.58,163,111.9768,172.5528,112.6615,166.9375,118.2768,167.6223,109.58,163" style="stroke: #0000FF; stroke-width: 1.0;"/><!--MD5=[616dfa3fe95d256dd11b94bc2f4eed34]
link Librarian to BookLending--><path d="M181.68,271.1 C193.86,314.58 215.15,411.03 190.57,487 C183.86,507.72 169.84,527.61 157.04,542.73 " fill="none" id="Librarian-&gt;BookLending" style="stroke: #0000FF; stroke-width: 1.0; stroke-dasharray: 7.0,7.0;"/><polygon fill="#0000FF" points="153.46,546.86,162.3711,542.6657,156.7292,543.0768,156.3181,537.435,153.46,546.86" style="stroke: #0000FF; stroke-width: 1.0;"/><!--MD5=[7859152f462dd0a24417713b9db8aed1]
link Librarian to BookItem--><path d="M169.78,271.31 C161.64,310.87 145.17,390.99 136.39,433.7 " fill="none" id="Librarian-&gt;BookItem" style="stroke: #0000FF; stroke-width: 1.0; stroke-dasharray: 7.0,7.0;"/><polygon fill="#0000FF" points="135.36,438.72,141.0789,430.7016,136.3598,433.821,133.2404,429.1019,135.36,438.72" style="stroke: #0000FF; stroke-width: 1.0;"/><!--MD5=[580efea94984ee7030b7eed5b6174b98]
link Librarian to Member--><path d="M150.27,271 C132.92,287.42 109.53,309.56 91.26,326.84 " fill="none" id="Librarian-&gt;Member" style="stroke: #0000FF; stroke-width: 1.0; stroke-dasharray: 7.0,7.0;"/><polygon fill="#0000FF" points="87.21,330.68,96.492,327.387,90.8371,327.2385,90.9856,321.5836,87.21,330.68" style="stroke: #0000FF; stroke-width: 1.0;"/><!--MD5=[ae7ada2a1267dfd3ff5ac9ae505f5ad0]
@startuml
!include SkinParamClass.iuml

Library      *- - Catalog
Library      *-r- "*" Librarian
Library      *-r- "*" Member

Catalog      ..> Librarian
Catalog      *- - "*" Book

Book         *- - "*" BookItem
Book         "*" o- -o "*" Author

BookItem     *- - BookLending

Member       -u-> User
Member       *- - "*" BookLending
Member       ..> BookItem

Librarian    -u-> User
Librarian    ..> BookLending
Librarian    ..> BookItem
Librarian    ..> Member

@enduml

@startuml
skinparam class {
  ArrowColor Blue
  BorderColor Blue
}

Library      *- - Catalog
Library      *-r- "*" Librarian
Library      *-r- "*" Member

Catalog      ..> Librarian
Catalog      *- - "*" Book

Book         *- - "*" BookItem
Book         "*" o- -o "*" Author

BookItem     *- - BookLending

Member       -u-> User
Member       *- - "*" BookLending
Member       ..> BookItem

Librarian    -u-> User
Librarian    ..> BookLending
Librarian    ..> BookItem
Librarian    ..> Member

@enduml

PlantUML version 1.2020.15(Sun Jun 28 14:39:45 IDT 2020)
(GPL source distribution)
Java Runtime: Java(TM) SE Runtime Environment
JVM: Java HotSpot(TM) 64-Bit Server VM
Default Encoding: US-ASCII
Language: en
Country: IL
--></g></svg>