<?xml version="1.0" encoding="UTF-8" standalone="no"?><svg xmlns="http://www.w3.org/2000/svg" xmlns:xlink="http://www.w3.org/1999/xlink" contentScriptType="application/ecmascript" contentStyleType="text/css" height="428px" preserveAspectRatio="none" style="width:737px;height:428px;" version="1.1" viewBox="0 0 737 428" width="737px" zoomAndPan="magnify"><defs><filter height="300%" id="fi6ndvut4h1on" width="300%" x="-1" y="-1"><feGaussianBlur result="blurOut" stdDeviation="2.0"/><feColorMatrix in="blurOut" result="blurOut2" type="matrix" values="0 0 0 0 0 0 0 0 0 0 0 0 0 0 0 0 0 0 .4 0"/><feOffset dx="4.0" dy="4.0" in="blurOut2" result="blurOut3"/><feBlend in="SourceGraphic" in2="blurOut3" mode="normal"/></filter></defs><g><rect fill="#FEFECE" filter="url(#fi6ndvut4h1on)" height="48.2656" rx="12.5" ry="12.5" style="stroke: #0000FF; stroke-width: 1.5;" width="255" x="10" y="190.6641"/><text fill="#000000" font-family="sans-serif" font-size="24" lengthAdjust="spacingAndGlyphs" textLength="235" x="20" y="223.8672">Data Representation</text><rect fill="#FEFECE" filter="url(#fi6ndvut4h1on)" height="48.2656" rx="12.5" ry="12.5" style="stroke: #0000FF; stroke-width: 1.5;" width="100" x="315" y="20"/><text fill="#000000" font-family="sans-serif" font-size="24" lengthAdjust="spacingAndGlyphs" textLength="80" x="325" y="53.2031">Record</text><rect fill="#FEFECE" filter="url(#fi6ndvut4h1on)" height="48.2656" rx="12.5" ry="12.5" style="stroke: #0000FF; stroke-width: 1.5;" width="253" x="465" y="20"/><text fill="#000000" font-family="sans-serif" font-size="24" lengthAdjust="spacingAndGlyphs" textLength="233" x="475" y="53.2031">Heterogeneous Map</text><path d="M415,44.1328 L425,44.1328 C440,44.1328 440,44.1328 455,44.1328 L465,44.1328 " fill="none" style="stroke: #0000FF; stroke-width: 3.0;"/><path d="M265,214.7969 L275,214.7969 C290,214.7969 290,44.1328 305,44.1328 L315,44.1328 " fill="none" style="stroke: #0000FF; stroke-width: 3.0;"/><rect fill="#FEFECE" filter="url(#fi6ndvut4h1on)" height="48.2656" rx="12.5" ry="12.5" style="stroke: #0000FF; stroke-width: 1.5;" width="137" x="315" y="190.6641"/><text fill="#000000" font-family="sans-serif" font-size="24" lengthAdjust="spacingAndGlyphs" textLength="117" x="325" y="223.8672">Collection</text><rect fill="#FEFECE" filter="url(#fi6ndvut4h1on)" height="48.2656" rx="12.5" ry="12.5" style="stroke: #0000FF; stroke-width: 1.5;" width="146" x="502" y="88.2656"/><text fill="#000000" font-family="sans-serif" font-size="24" lengthAdjust="spacingAndGlyphs" textLength="126" x="512" y="121.4688">Linked List</text><path d="M452,214.7969 L462,214.7969 C477,214.7969 477,112.3984 492,112.3984 L502,112.3984 " fill="none" style="stroke: #0000FF; stroke-width: 3.0;"/><rect fill="#FEFECE" filter="url(#fi6ndvut4h1on)" height="48.2656" rx="12.5" ry="12.5" style="stroke: #0000FF; stroke-width: 1.5;" width="83" x="502" y="156.5313"/><text fill="#000000" font-family="sans-serif" font-size="24" lengthAdjust="spacingAndGlyphs" textLength="63" x="512" y="189.7344">Array</text><path d="M452,214.7969 L462,214.7969 C477,214.7969 477,180.6641 492,180.6641 L502,180.6641 " fill="none" style="stroke: #0000FF; stroke-width: 3.0;"/><rect fill="#FEFECE" filter="url(#fi6ndvut4h1on)" height="48.2656" rx="12.5" ry="12.5" style="stroke: #0000FF; stroke-width: 1.5;" width="55" x="502" y="224.7969"/><text fill="#000000" font-family="sans-serif" font-size="24" lengthAdjust="spacingAndGlyphs" textLength="35" x="512" y="258">Set</text><path d="M452,214.7969 L462,214.7969 C477,214.7969 477,248.9297 492,248.9297 L502,248.9297 " fill="none" style="stroke: #0000FF; stroke-width: 3.0;"/><rect fill="#FEFECE" filter="url(#fi6ndvut4h1on)" height="48.2656" rx="12.5" ry="12.5" style="stroke: #0000FF; stroke-width: 1.5;" width="95" x="502" y="293.0625"/><text fill="#000000" font-family="sans-serif" font-size="24" lengthAdjust="spacingAndGlyphs" textLength="75" x="512" y="326.2656">Vector</text><path d="M452,214.7969 L462,214.7969 C477,214.7969 477,317.1953 492,317.1953 L502,317.1953 " fill="none" style="stroke: #0000FF; stroke-width: 3.0;"/><path d="M265,214.7969 L275,214.7969 C290,214.7969 290,214.7969 305,214.7969 L315,214.7969 " fill="none" style="stroke: #0000FF; stroke-width: 3.0;"/><rect fill="#FEFECE" filter="url(#fi6ndvut4h1on)" height="48.2656" rx="12.5" ry="12.5" style="stroke: #0000FF; stroke-width: 1.5;" width="85" x="315" y="361.3281"/><text fill="#000000" font-family="sans-serif" font-size="24" lengthAdjust="spacingAndGlyphs" textLength="65" x="325" y="394.5313">Index</text><rect fill="#FEFECE" filter="url(#fi6ndvut4h1on)" height="48.2656" rx="12.5" ry="12.5" style="stroke: #0000FF; stroke-width: 1.5;" width="245" x="450" y="361.3281"/><text fill="#000000" font-family="sans-serif" font-size="24" lengthAdjust="spacingAndGlyphs" textLength="225" x="460" y="394.5313">Homogeneous Map</text><path d="M400,385.4609 L410,385.4609 C425,385.4609 425,385.4609 440,385.4609 L450,385.4609 " fill="none" style="stroke: #0000FF; stroke-width: 3.0;"/><path d="M265,214.7969 L275,214.7969 C290,214.7969 290,385.4609 305,385.4609 L315,385.4609 " fill="none" style="stroke: #0000FF; stroke-width: 3.0;"/><!--MD5=[6b9f3bf8905ea6bf6ec3682d57d4f2b4]
@startmindmap
!include SkinParam.iuml

* Data Representation
** Record
*** Heterogeneous Map
** Collection
*** Linked List
*** Array
*** Set
*** Vector
** Index
*** Homogeneous Map

@endmindmap

@startmindmap
<style>
mindmapDiagram {
  node {
    LineColor blue
    FontSize  24
  }
  arrow {
    LineColor blue
    LineThickness 3
  }
  .orange {
    BackgroundColor orange
  }
  .red {
    BackgroundColor red
  }

  .green {
    BackgroundColor lightgreen
  }

}
</style>

* Data Representation
** Record
*** Heterogeneous Map
** Collection
*** Linked List
*** Array
*** Set
*** Vector
** Index
*** Homogeneous Map

@endmindmap

PlantUML version 1.2020.15(Sun Jun 28 14:39:45 IDT 2020)
(GPL source distribution)
Java Runtime: Java(TM) SE Runtime Environment
JVM: Java HotSpot(TM) 64-Bit Server VM
Default Encoding: US-ASCII
Language: en
Country: IL
--></g></svg>