<?xml version="1.0" encoding="UTF-8" standalone="no"?><svg xmlns="http://www.w3.org/2000/svg" xmlns:xlink="http://www.w3.org/1999/xlink" contentScriptType="application/ecmascript" contentStyleType="text/css" height="506px" preserveAspectRatio="none" style="width:752px;height:506px;" version="1.1" viewBox="0 0 752 506" width="752px" zoomAndPan="magnify"><defs><filter height="300%" id="f2k9600kqd37s" width="300%" x="-1" y="-1"><feGaussianBlur result="blurOut" stdDeviation="2.0"/><feColorMatrix in="blurOut" result="blurOut2" type="matrix" values="0 0 0 0 0 0 0 0 0 0 0 0 0 0 0 0 0 0 .4 0"/><feOffset dx="4.0" dy="4.0" in="blurOut2" result="blurOut3"/><feBlend in="SourceGraphic" in2="blurOut3" mode="normal"/></filter></defs><g><!--MD5=[8e0f57273067c52b9dd93a564a737613]
class LibraryCode--><rect fill="#FEFECE" filter="url(#f2k9600kqd37s)" height="48" id="LibraryCode" style="stroke: #0000FF; stroke-width: 1.5;" width="102" x="119" y="7"/><ellipse cx="134" cy="23" fill="#ADD8E6" rx="11" ry="11" style="stroke: #0000FF; stroke-width: 1.0;"/><path d="M133.2334,24.063 Q131.3823,23.3574 130.7266,22.5813 Q130.0708,21.8052 130.0708,20.4937 Q130.0708,18.8086 131.1499,17.8457 Q132.229,16.8828 134.1133,16.8828 Q134.9683,16.8828 135.8232,17.0779 Q136.6782,17.2729 137.5166,17.6548 L137.5166,20.0454 Q136.728,19.4893 135.9146,19.1987 Q135.1011,18.9082 134.3042,18.9082 Q133.416,18.9082 132.9429,19.2651 Q132.4697,19.6221 132.4697,20.2861 Q132.4697,20.8008 132.8142,21.137 Q133.1587,21.4731 134.2544,21.8799 L135.3086,22.2783 Q136.8027,22.8262 137.5083,23.731 Q138.2139,24.6357 138.2139,26.0137 Q138.2139,27.8896 137.1057,28.8152 Q135.9976,29.7407 133.7563,29.7407 Q132.835,29.7407 131.9094,29.5208 Q130.9839,29.3008 130.1206,28.8691 L130.1206,26.3374 Q131.1001,27.0347 132.0173,27.375 Q132.9346,27.7153 133.8311,27.7153 Q134.7358,27.7153 135.2339,27.3044 Q135.7319,26.8936 135.7319,26.1548 Q135.7319,25.5986 135.3999,25.1794 Q135.0679,24.7603 134.437,24.5195 Z "/><text fill="#000000" font-family="sans-serif" font-size="12" lengthAdjust="spacingAndGlyphs" textLength="70" x="148" y="27.5352">LibraryCode</text><line style="stroke: #0000FF; stroke-width: 1.5;" x1="120" x2="220" y1="39" y2="39"/><line style="stroke: #0000FF; stroke-width: 1.5;" x1="120" x2="220" y1="47" y2="47"/><!--MD5=[439646d728ab63266c031e8966319c59]
class CatalogCode--><rect fill="#FEFECE" filter="url(#f2k9600kqd37s)" height="48" id="CatalogCode" style="stroke: #0000FF; stroke-width: 1.5;" width="105" x="117.5" y="115"/><ellipse cx="132.5" cy="131" fill="#ADD8E6" rx="11" ry="11" style="stroke: #0000FF; stroke-width: 1.0;"/><path d="M131.7334,132.063 Q129.8823,131.3574 129.2266,130.5813 Q128.5708,129.8052 128.5708,128.4937 Q128.5708,126.8086 129.6499,125.8457 Q130.729,124.8828 132.6133,124.8828 Q133.4683,124.8828 134.3232,125.0779 Q135.1782,125.2729 136.0166,125.6548 L136.0166,128.0454 Q135.228,127.4893 134.4146,127.1987 Q133.6011,126.9082 132.8042,126.9082 Q131.916,126.9082 131.4429,127.2651 Q130.9697,127.6221 130.9697,128.2861 Q130.9697,128.8008 131.3142,129.137 Q131.6587,129.4731 132.7544,129.8799 L133.8086,130.2783 Q135.3027,130.8262 136.0083,131.731 Q136.7139,132.6357 136.7139,134.0137 Q136.7139,135.8896 135.6057,136.8152 Q134.4976,137.7407 132.2563,137.7407 Q131.335,137.7407 130.4094,137.5208 Q129.4839,137.3008 128.6206,136.8691 L128.6206,134.3374 Q129.6001,135.0347 130.5173,135.375 Q131.4346,135.7153 132.3311,135.7153 Q133.2358,135.7153 133.7339,135.3044 Q134.2319,134.8936 134.2319,134.1548 Q134.2319,133.5986 133.8999,133.1794 Q133.5679,132.7603 132.937,132.5195 Z "/><text fill="#000000" font-family="sans-serif" font-size="12" lengthAdjust="spacingAndGlyphs" textLength="73" x="146.5" y="135.5352">CatalogCode</text><line style="stroke: #0000FF; stroke-width: 1.5;" x1="118.5" x2="221.5" y1="147" y2="147"/><line style="stroke: #0000FF; stroke-width: 1.5;" x1="118.5" x2="221.5" y1="155" y2="155"/><!--MD5=[584d5b14aa6fa515864e3101ac27949a]
class LibrarianCode--><rect fill="#FEFECE" filter="url(#f2k9600kqd37s)" height="48" id="LibrarianCode" style="stroke: #0000FF; stroke-width: 1.5;" width="113" x="113.5" y="223"/><ellipse cx="128.5" cy="239" fill="#ADD8E6" rx="11" ry="11" style="stroke: #0000FF; stroke-width: 1.0;"/><path d="M127.7334,240.063 Q125.8823,239.3574 125.2266,238.5813 Q124.5708,237.8052 124.5708,236.4937 Q124.5708,234.8086 125.6499,233.8457 Q126.729,232.8828 128.6133,232.8828 Q129.4683,232.8828 130.3232,233.0779 Q131.1782,233.2729 132.0166,233.6548 L132.0166,236.0454 Q131.228,235.4893 130.4146,235.1987 Q129.6011,234.9082 128.8042,234.9082 Q127.916,234.9082 127.4429,235.2651 Q126.9697,235.6221 126.9697,236.2861 Q126.9697,236.8008 127.3142,237.137 Q127.6587,237.4731 128.7544,237.8799 L129.8086,238.2783 Q131.3027,238.8262 132.0083,239.731 Q132.7139,240.6357 132.7139,242.0137 Q132.7139,243.8896 131.6057,244.8152 Q130.4976,245.7407 128.2563,245.7407 Q127.335,245.7407 126.4094,245.5208 Q125.4839,245.3008 124.6206,244.8691 L124.6206,242.3374 Q125.6001,243.0347 126.5173,243.375 Q127.4346,243.7153 128.3311,243.7153 Q129.2358,243.7153 129.7339,243.3044 Q130.2319,242.8936 130.2319,242.1548 Q130.2319,241.5986 129.8999,241.1794 Q129.5679,240.7603 128.937,240.5195 Z "/><text fill="#000000" font-family="sans-serif" font-size="12" lengthAdjust="spacingAndGlyphs" textLength="81" x="142.5" y="243.5352">LibrarianCode</text><line style="stroke: #0000FF; stroke-width: 1.5;" x1="114.5" x2="225.5" y1="255" y2="255"/><line style="stroke: #0000FF; stroke-width: 1.5;" x1="114.5" x2="225.5" y1="263" y2="263"/><!--MD5=[af9b1c12a2ee5eb3d77a04c422a27041]
class MemberData--><rect fill="#FEFECE" filter="url(#f2k9600kqd37s)" height="48" id="MemberData" style="stroke: #0000FF; stroke-width: 1.5;" width="107" x="358.5" y="223"/><ellipse cx="373.5" cy="239" fill="#DA70D6" rx="11" ry="11" style="stroke: #0000FF; stroke-width: 1.0;"/><path d="M372.5859,235.3149 L372.5859,243.292 L373.25,243.292 Q374.6943,243.292 375.3086,242.3831 Q375.9229,241.4741 375.9229,239.291 Q375.9229,237.1245 375.3086,236.2197 Q374.6943,235.3149 373.25,235.3149 Z M370.1372,233.1069 L372.7603,233.1069 Q375.7983,233.1069 377.1348,234.5554 Q378.4712,236.0039 378.4712,239.291 Q378.4712,242.5864 377.1348,244.0432 Q375.7983,245.5 372.7603,245.5 L370.1372,245.5 Z "/><text fill="#000000" font-family="sans-serif" font-size="12" lengthAdjust="spacingAndGlyphs" textLength="75" x="387.5" y="243.5352">MemberData</text><line style="stroke: #0000FF; stroke-width: 1.5;" x1="359.5" x2="464.5" y1="255" y2="255"/><line style="stroke: #0000FF; stroke-width: 1.5;" x1="359.5" x2="464.5" y1="263" y2="263"/><!--MD5=[bec8997432025d2f0f19d59da50ae111]
class BookLendingData--><rect fill="#FEFECE" filter="url(#f2k9600kqd37s)" height="48" id="BookLendingData" style="stroke: #0000FF; stroke-width: 1.5;" width="132" x="400" y="439"/><ellipse cx="415" cy="455" fill="#DA70D6" rx="11" ry="11" style="stroke: #0000FF; stroke-width: 1.0;"/><path d="M414.0859,451.3149 L414.0859,459.292 L414.75,459.292 Q416.1943,459.292 416.8086,458.3831 Q417.4229,457.4741 417.4229,455.291 Q417.4229,453.1245 416.8086,452.2197 Q416.1943,451.3149 414.75,451.3149 Z M411.6372,449.1069 L414.2603,449.1069 Q417.2983,449.1069 418.6348,450.5554 Q419.9712,452.0039 419.9712,455.291 Q419.9712,458.5864 418.6348,460.0432 Q417.2983,461.5 414.2603,461.5 L411.6372,461.5 Z "/><text fill="#000000" font-family="sans-serif" font-size="12" lengthAdjust="spacingAndGlyphs" textLength="100" x="429" y="459.5352">BookLendingData</text><line style="stroke: #0000FF; stroke-width: 1.5;" x1="401" x2="531" y1="471" y2="471"/><line style="stroke: #0000FF; stroke-width: 1.5;" x1="401" x2="531" y1="479" y2="479"/><!--MD5=[dc8a9b75b4f497878a8f9a315c321d9f]
class MemberCode--><rect fill="#FEFECE" filter="url(#f2k9600kqd37s)" height="48" id="MemberCode" style="stroke: #0000FF; stroke-width: 1.5;" width="110" x="7" y="331"/><ellipse cx="22" cy="347" fill="#ADD8E6" rx="11" ry="11" style="stroke: #0000FF; stroke-width: 1.0;"/><path d="M21.2334,348.063 Q19.3823,347.3574 18.7266,346.5813 Q18.0708,345.8052 18.0708,344.4937 Q18.0708,342.8086 19.1499,341.8457 Q20.229,340.8828 22.1133,340.8828 Q22.9683,340.8828 23.8232,341.0779 Q24.6782,341.2729 25.5166,341.6548 L25.5166,344.0454 Q24.728,343.4893 23.9146,343.1987 Q23.1011,342.9082 22.3042,342.9082 Q21.416,342.9082 20.9429,343.2651 Q20.4697,343.6221 20.4697,344.2861 Q20.4697,344.8008 20.8142,345.137 Q21.1587,345.4731 22.2544,345.8799 L23.3086,346.2783 Q24.8027,346.8262 25.5083,347.731 Q26.2139,348.6357 26.2139,350.0137 Q26.2139,351.8896 25.1057,352.8152 Q23.9976,353.7407 21.7563,353.7407 Q20.835,353.7407 19.9094,353.5208 Q18.9839,353.3008 18.1206,352.8691 L18.1206,350.3374 Q19.1001,351.0347 20.0173,351.375 Q20.9346,351.7153 21.8311,351.7153 Q22.7358,351.7153 23.2339,351.3044 Q23.7319,350.8936 23.7319,350.1548 Q23.7319,349.5986 23.3999,349.1794 Q23.0679,348.7603 22.437,348.5195 Z "/><text fill="#000000" font-family="sans-serif" font-size="12" lengthAdjust="spacingAndGlyphs" textLength="78" x="36" y="351.5352">MemberCode</text><line style="stroke: #0000FF; stroke-width: 1.5;" x1="8" x2="116" y1="363" y2="363"/><line style="stroke: #0000FF; stroke-width: 1.5;" x1="8" x2="116" y1="371" y2="371"/><!--MD5=[0513754fd7d1c2db156042e4bb35e895]
class BookItemCode--><rect fill="#FEFECE" filter="url(#f2k9600kqd37s)" height="48" id="BookItemCode" style="stroke: #0000FF; stroke-width: 1.5;" width="115" x="58.5" y="439"/><ellipse cx="73.5" cy="455" fill="#ADD8E6" rx="11" ry="11" style="stroke: #0000FF; stroke-width: 1.0;"/><path d="M72.7334,456.063 Q70.8823,455.3574 70.2266,454.5813 Q69.5708,453.8052 69.5708,452.4937 Q69.5708,450.8086 70.6499,449.8457 Q71.729,448.8828 73.6133,448.8828 Q74.4683,448.8828 75.3232,449.0779 Q76.1782,449.2729 77.0166,449.6548 L77.0166,452.0454 Q76.228,451.4893 75.4146,451.1987 Q74.6011,450.9082 73.8042,450.9082 Q72.916,450.9082 72.4429,451.2651 Q71.9697,451.6221 71.9697,452.2861 Q71.9697,452.8008 72.3142,453.137 Q72.6587,453.4731 73.7544,453.8799 L74.8086,454.2783 Q76.3027,454.8262 77.0083,455.731 Q77.7139,456.6357 77.7139,458.0137 Q77.7139,459.8896 76.6057,460.8152 Q75.4976,461.7407 73.2563,461.7407 Q72.335,461.7407 71.4094,461.5208 Q70.4839,461.3008 69.6206,460.8691 L69.6206,458.3374 Q70.6001,459.0347 71.5173,459.375 Q72.4346,459.7153 73.3311,459.7153 Q74.2358,459.7153 74.7339,459.3044 Q75.2319,458.8936 75.2319,458.1548 Q75.2319,457.5986 74.8999,457.1794 Q74.5679,456.7603 73.937,456.5195 Z "/><text fill="#000000" font-family="sans-serif" font-size="12" lengthAdjust="spacingAndGlyphs" textLength="83" x="87.5" y="459.5352">BookItemCode</text><line style="stroke: #0000FF; stroke-width: 1.5;" x1="59.5" x2="172.5" y1="471" y2="471"/><line style="stroke: #0000FF; stroke-width: 1.5;" x1="59.5" x2="172.5" y1="479" y2="479"/><!--MD5=[290f797214b2fc984a07e822ba88578f]
class BookLendingCode--><rect fill="#FEFECE" filter="url(#f2k9600kqd37s)" height="48" id="BookLendingCode" style="stroke: #0000FF; stroke-width: 1.5;" width="135" x="223.5" y="331"/><ellipse cx="238.5" cy="347" fill="#ADD8E6" rx="11" ry="11" style="stroke: #0000FF; stroke-width: 1.0;"/><path d="M237.7334,348.063 Q235.8823,347.3574 235.2266,346.5813 Q234.5708,345.8052 234.5708,344.4937 Q234.5708,342.8086 235.6499,341.8457 Q236.729,340.8828 238.6133,340.8828 Q239.4683,340.8828 240.3232,341.0779 Q241.1782,341.2729 242.0166,341.6548 L242.0166,344.0454 Q241.228,343.4893 240.4146,343.1987 Q239.6011,342.9082 238.8042,342.9082 Q237.916,342.9082 237.4429,343.2651 Q236.9697,343.6221 236.9697,344.2861 Q236.9697,344.8008 237.3142,345.137 Q237.6587,345.4731 238.7544,345.8799 L239.8086,346.2783 Q241.3027,346.8262 242.0083,347.731 Q242.7139,348.6357 242.7139,350.0137 Q242.7139,351.8896 241.6057,352.8152 Q240.4976,353.7407 238.2563,353.7407 Q237.335,353.7407 236.4094,353.5208 Q235.4839,353.3008 234.6206,352.8691 L234.6206,350.3374 Q235.6001,351.0347 236.5173,351.375 Q237.4346,351.7153 238.3311,351.7153 Q239.2358,351.7153 239.7339,351.3044 Q240.2319,350.8936 240.2319,350.1548 Q240.2319,349.5986 239.8999,349.1794 Q239.5679,348.7603 238.937,348.5195 Z "/><text fill="#000000" font-family="sans-serif" font-size="12" lengthAdjust="spacingAndGlyphs" textLength="103" x="252.5" y="351.5352">BookLendingCode</text><line style="stroke: #0000FF; stroke-width: 1.5;" x1="224.5" x2="357.5" y1="363" y2="363"/><line style="stroke: #0000FF; stroke-width: 1.5;" x1="224.5" x2="357.5" y1="371" y2="371"/><!--MD5=[85613b3ddf77b6211cc1269bfb81dbf1]
class LibraryData--><rect fill="#FEFECE" filter="url(#f2k9600kqd37s)" height="48" id="LibraryData" style="stroke: #0000FF; stroke-width: 1.5;" width="99" x="487.5" y="7"/><ellipse cx="502.5" cy="23" fill="#DA70D6" rx="11" ry="11" style="stroke: #0000FF; stroke-width: 1.0;"/><path d="M501.5859,19.3149 L501.5859,27.292 L502.25,27.292 Q503.6943,27.292 504.3086,26.3831 Q504.9229,25.4741 504.9229,23.291 Q504.9229,21.1245 504.3086,20.2197 Q503.6943,19.3149 502.25,19.3149 Z M499.1372,17.1069 L501.7603,17.1069 Q504.7983,17.1069 506.1348,18.5554 Q507.4712,20.0039 507.4712,23.291 Q507.4712,26.5864 506.1348,28.0432 Q504.7983,29.5 501.7603,29.5 L499.1372,29.5 Z "/><text fill="#000000" font-family="sans-serif" font-size="12" lengthAdjust="spacingAndGlyphs" textLength="67" x="516.5" y="27.5352">LibraryData</text><line style="stroke: #0000FF; stroke-width: 1.5;" x1="488.5" x2="585.5" y1="39" y2="39"/><line style="stroke: #0000FF; stroke-width: 1.5;" x1="488.5" x2="585.5" y1="47" y2="47"/><!--MD5=[d16e34ece3e51578c56662434aff7589]
class CatalogData--><rect fill="#FEFECE" filter="url(#f2k9600kqd37s)" height="48" id="CatalogData" style="stroke: #0000FF; stroke-width: 1.5;" width="102" x="486" y="115"/><ellipse cx="501" cy="131" fill="#DA70D6" rx="11" ry="11" style="stroke: #0000FF; stroke-width: 1.0;"/><path d="M500.0859,127.3149 L500.0859,135.292 L500.75,135.292 Q502.1943,135.292 502.8086,134.3831 Q503.4229,133.4741 503.4229,131.291 Q503.4229,129.1245 502.8086,128.2197 Q502.1943,127.3149 500.75,127.3149 Z M497.6372,125.1069 L500.2603,125.1069 Q503.2983,125.1069 504.6348,126.5554 Q505.9712,128.0039 505.9712,131.291 Q505.9712,134.5864 504.6348,136.0432 Q503.2983,137.5 500.2603,137.5 L497.6372,137.5 Z "/><text fill="#000000" font-family="sans-serif" font-size="12" lengthAdjust="spacingAndGlyphs" textLength="70" x="515" y="135.5352">CatalogData</text><line style="stroke: #0000FF; stroke-width: 1.5;" x1="487" x2="587" y1="147" y2="147"/><line style="stroke: #0000FF; stroke-width: 1.5;" x1="487" x2="587" y1="155" y2="155"/><!--MD5=[ff4189209e0afda60305a18801ab137e]
class LibrarianData--><rect fill="#FEFECE" filter="url(#f2k9600kqd37s)" height="48" id="LibrarianData" style="stroke: #0000FF; stroke-width: 1.5;" width="110" x="623" y="115"/><ellipse cx="638" cy="131" fill="#DA70D6" rx="11" ry="11" style="stroke: #0000FF; stroke-width: 1.0;"/><path d="M637.0859,127.3149 L637.0859,135.292 L637.75,135.292 Q639.1943,135.292 639.8086,134.3831 Q640.4229,133.4741 640.4229,131.291 Q640.4229,129.1245 639.8086,128.2197 Q639.1943,127.3149 637.75,127.3149 Z M634.6372,125.1069 L637.2603,125.1069 Q640.2983,125.1069 641.6348,126.5554 Q642.9712,128.0039 642.9712,131.291 Q642.9712,134.5864 641.6348,136.0432 Q640.2983,137.5 637.2603,137.5 L634.6372,137.5 Z "/><text fill="#000000" font-family="sans-serif" font-size="12" lengthAdjust="spacingAndGlyphs" textLength="78" x="652" y="135.5352">LibrarianData</text><line style="stroke: #0000FF; stroke-width: 1.5;" x1="624" x2="732" y1="147" y2="147"/><line style="stroke: #0000FF; stroke-width: 1.5;" x1="624" x2="732" y1="155" y2="155"/><!--MD5=[e1f55edb7cf672ca05938a0f20056ac0]
class BookData--><rect fill="#FEFECE" filter="url(#f2k9600kqd37s)" height="48" id="BookData" style="stroke: #0000FF; stroke-width: 1.5;" width="87" x="500.5" y="223"/><ellipse cx="515.5" cy="239" fill="#DA70D6" rx="11" ry="11" style="stroke: #0000FF; stroke-width: 1.0;"/><path d="M514.5859,235.3149 L514.5859,243.292 L515.25,243.292 Q516.6943,243.292 517.3086,242.3831 Q517.9229,241.4741 517.9229,239.291 Q517.9229,237.1245 517.3086,236.2197 Q516.6943,235.3149 515.25,235.3149 Z M512.1372,233.1069 L514.7603,233.1069 Q517.7983,233.1069 519.1348,234.5554 Q520.4712,236.0039 520.4712,239.291 Q520.4712,242.5864 519.1348,244.0432 Q517.7983,245.5 514.7603,245.5 L512.1372,245.5 Z "/><text fill="#000000" font-family="sans-serif" font-size="12" lengthAdjust="spacingAndGlyphs" textLength="55" x="529.5" y="243.5352">BookData</text><line style="stroke: #0000FF; stroke-width: 1.5;" x1="501.5" x2="586.5" y1="255" y2="255"/><line style="stroke: #0000FF; stroke-width: 1.5;" x1="501.5" x2="586.5" y1="263" y2="263"/><!--MD5=[1bf2ff1aa2793783eab793d025d3213f]
class BookItemData--><rect fill="#FEFECE" filter="url(#f2k9600kqd37s)" height="48" id="BookItemData" style="stroke: #0000FF; stroke-width: 1.5;" width="112" x="465" y="331"/><ellipse cx="480" cy="347" fill="#DA70D6" rx="11" ry="11" style="stroke: #0000FF; stroke-width: 1.0;"/><path d="M479.0859,343.3149 L479.0859,351.292 L479.75,351.292 Q481.1943,351.292 481.8086,350.3831 Q482.4229,349.4741 482.4229,347.291 Q482.4229,345.1245 481.8086,344.2197 Q481.1943,343.3149 479.75,343.3149 Z M476.6372,341.1069 L479.2603,341.1069 Q482.2983,341.1069 483.6348,342.5554 Q484.9712,344.0039 484.9712,347.291 Q484.9712,350.5864 483.6348,352.0432 Q482.2983,353.5 479.2603,353.5 L476.6372,353.5 Z "/><text fill="#000000" font-family="sans-serif" font-size="12" lengthAdjust="spacingAndGlyphs" textLength="80" x="494" y="351.5352">BookItemData</text><line style="stroke: #0000FF; stroke-width: 1.5;" x1="466" x2="576" y1="363" y2="363"/><line style="stroke: #0000FF; stroke-width: 1.5;" x1="466" x2="576" y1="371" y2="371"/><!--MD5=[5cdd9078037601a094ad3f4ca20a7500]
class AuthorData--><rect fill="#FEFECE" filter="url(#f2k9600kqd37s)" height="48" id="AuthorData" style="stroke: #0000FF; stroke-width: 1.5;" width="97" x="612.5" y="331"/><ellipse cx="627.5" cy="347" fill="#DA70D6" rx="11" ry="11" style="stroke: #0000FF; stroke-width: 1.0;"/><path d="M626.5859,343.3149 L626.5859,351.292 L627.25,351.292 Q628.6943,351.292 629.3086,350.3831 Q629.9229,349.4741 629.9229,347.291 Q629.9229,345.1245 629.3086,344.2197 Q628.6943,343.3149 627.25,343.3149 Z M624.1372,341.1069 L626.7603,341.1069 Q629.7983,341.1069 631.1348,342.5554 Q632.4712,344.0039 632.4712,347.291 Q632.4712,350.5864 631.1348,352.0432 Q629.7983,353.5 626.7603,353.5 L624.1372,353.5 Z "/><text fill="#000000" font-family="sans-serif" font-size="12" lengthAdjust="spacingAndGlyphs" textLength="65" x="641.5" y="351.5352">AuthorData</text><line style="stroke: #0000FF; stroke-width: 1.5;" x1="613.5" x2="708.5" y1="363" y2="363"/><line style="stroke: #0000FF; stroke-width: 1.5;" x1="613.5" x2="708.5" y1="371" y2="371"/><!--MD5=[5a9a7b6d94f503f59588cd4f0758316a]
link LibraryCode to CatalogCode--><path d="M170,55 C170,71 170,92.45 170,109.53 " fill="none" id="LibraryCode-&gt;CatalogCode" style="stroke: #0000FF; stroke-width: 1.0; stroke-dasharray: 7.0,7.0;"/><polygon fill="#0000FF" points="170,114.68,174,105.68,170,109.68,166,105.68,170,114.68" style="stroke: #0000FF; stroke-width: 1.0;"/><!--MD5=[50e6760be8ecd751afd618dd2f5378c6]
link CatalogCode to LibrarianCode--><path d="M170,163 C170,179 170,200.45 170,217.53 " fill="none" id="CatalogCode-&gt;LibrarianCode" style="stroke: #0000FF; stroke-width: 1.0; stroke-dasharray: 7.0,7.0;"/><polygon fill="#0000FF" points="170,222.68,174,213.68,170,217.68,166,213.68,170,222.68" style="stroke: #0000FF; stroke-width: 1.0;"/><!--MD5=[3640ca287c9d53854ac4290a2e77e0eb]
reverse link MemberData to BookLendingData--><path d="M421.08,283.97 C432.2,328.04 450.72,401.43 460.13,438.72 " fill="none" id="MemberData&lt;-BookLendingData" style="stroke: #0000FF; stroke-width: 1.0;"/><polygon fill="#0000FF" points="417.88,271.31,415.4728,278.1074,420.8215,282.9439,423.2287,276.1465,417.88,271.31" style="stroke: #0000FF; stroke-width: 1.0;"/><text fill="#000000" font-family="sans-serif" font-size="13" lengthAdjust="spacingAndGlyphs" textLength="6" x="451.8571" y="428.1845">*</text><!--MD5=[64172a9737669409150bd8b06c5f1a50]
link MemberCode to BookItemCode--><path d="M73.72,379 C81.94,395.14 92.98,416.82 101.72,433.97 " fill="none" id="MemberCode-&gt;BookItemCode" style="stroke: #0000FF; stroke-width: 1.0; stroke-dasharray: 7.0,7.0;"/><polygon fill="#0000FF" points="104.12,438.68,103.5974,428.845,101.8497,434.2251,96.4696,432.4774,104.12,438.68" style="stroke: #0000FF; stroke-width: 1.0;"/><!--MD5=[9c1dde0160a90c888f67e3b65bb5d4a2]
link LibrarianCode to BookLendingCode--><path d="M196.26,271 C215.15,287.55 240.7,309.93 260.5,327.28 " fill="none" id="LibrarianCode-&gt;BookLendingCode" style="stroke: #0000FF; stroke-width: 1.0; stroke-dasharray: 7.0,7.0;"/><polygon fill="#0000FF" points="264.38,330.68,260.2576,321.7354,260.6233,327.3804,254.9783,327.7461,264.38,330.68" style="stroke: #0000FF; stroke-width: 1.0;"/><!--MD5=[150d6ab0b8d51287c7a887240e648cae]
link LibrarianCode to BookItemCode--><path d="M164.12,271.31 C154.14,310.87 133.92,390.99 123.14,433.7 " fill="none" id="LibrarianCode-&gt;BookItemCode" style="stroke: #0000FF; stroke-width: 1.0; stroke-dasharray: 7.0,7.0;"/><polygon fill="#0000FF" points="121.87,438.72,127.9603,430.9799,123.0995,433.8735,120.2059,429.0127,121.87,438.72" style="stroke: #0000FF; stroke-width: 1.0;"/><!--MD5=[e447a4116f1dbd1e18f0b49b86d55e1f]
link LibrarianCode to MemberCode--><path d="M146.57,271 C129.84,287.42 107.28,309.56 89.67,326.84 " fill="none" id="LibrarianCode-&gt;MemberCode" style="stroke: #0000FF; stroke-width: 1.0; stroke-dasharray: 7.0,7.0;"/><polygon fill="#0000FF" points="85.76,330.68,94.9806,327.2187,89.3239,327.1731,89.3695,321.5164,85.76,330.68" style="stroke: #0000FF; stroke-width: 1.0;"/><!--MD5=[e551594abe739c635709599a6bf98767]
reverse link LibraryData to CatalogData--><path d="M537,68.34 C537,83.68 537,101.1 537,114.68 " fill="none" id="LibraryData&lt;-CatalogData" style="stroke: #0000FF; stroke-width: 1.0;"/><polygon fill="#0000FF" points="537,55,533,61,537,67,541,61,537,55" style="stroke: #0000FF; stroke-width: 1.0;"/><!--MD5=[1750af50fdc21ed654d74f4291797ebc]
reverse link LibraryData to LibrarianData--><path d="M578.28,63.03 C600.24,79.54 626.79,99.5 646.98,114.68 " fill="none" id="LibraryData&lt;-LibrarianData" style="stroke: #0000FF; stroke-width: 1.0;"/><polygon fill="#0000FF" points="567.59,55,569.9795,61.8037,577.1789,62.2148,574.7894,55.4111,567.59,55" style="stroke: #0000FF; stroke-width: 1.0;"/><text fill="#000000" font-family="sans-serif" font-size="13" lengthAdjust="spacingAndGlyphs" textLength="6" x="632.2624" y="104.1343">*</text><!--MD5=[319bbfebaf9cea2223ce6a56cdf06eb9]
reverse link LibraryData to MemberData--><path d="M506.38,65.04 C493.8,79.65 479.71,97.48 469,115 C447.28,150.56 429.52,195.86 419.88,222.81 " fill="none" id="LibraryData&lt;-MemberData" style="stroke: #0000FF; stroke-width: 1.0;"/><polygon fill="#0000FF" points="515.2,55.01,508.2334,56.872,507.2728,64.0188,514.2393,62.1568,515.2,55.01" style="stroke: #0000FF; stroke-width: 1.0;"/><text fill="#000000" font-family="sans-serif" font-size="13" lengthAdjust="spacingAndGlyphs" textLength="6" x="415.1305" y="212.2976">*</text><!--MD5=[47115d34bccf02b96073612ab8fdc551]
reverse link CatalogData to BookData--><path d="M539.4,176.34 C540.41,191.68 541.56,209.1 542.46,222.68 " fill="none" id="CatalogData&lt;-BookData" style="stroke: #0000FF; stroke-width: 1.0;"/><polygon fill="#0000FF" points="538.52,163,534.9243,169.2507,539.3112,174.9739,542.9069,168.7232,538.52,163" style="stroke: #0000FF; stroke-width: 1.0;"/><text fill="#000000" font-family="sans-serif" font-size="13" lengthAdjust="spacingAndGlyphs" textLength="6" x="535.2966" y="212.1343">*</text><!--MD5=[054cabe7b38662c3676c6a2347467ae7]
reverse link BookData to BookItemData--><path d="M536.22,283.87 C532.86,299.33 529.04,316.96 526.06,330.68 " fill="none" id="BookData&lt;-BookItemData" style="stroke: #0000FF; stroke-width: 1.0;"/><polygon fill="#0000FF" points="539.01,271,533.8281,276.0148,536.4641,282.7268,541.646,277.712,539.01,271" style="stroke: #0000FF; stroke-width: 1.0;"/><text fill="#000000" font-family="sans-serif" font-size="13" lengthAdjust="spacingAndGlyphs" textLength="6" x="520.5879" y="320.1343">*</text><!--MD5=[a4dd8fc068cc01ac179386b022643d8c]
link BookData to AuthorData--><path d="M578.2806,279.0596 C578.2806,279.0596 626.3694,322.6204 626.3694,322.6204 " fill="none" id="BookData-AuthorData" style="stroke: #0000FF; stroke-width: 1.0;"/><polygon fill="#FFFFFF" points="635.26,330.68,633.5012,323.6867,626.3694,322.6204,628.1282,329.6137,635.26,330.68" style="stroke: #0000FF; stroke-width: 1.0;"/><polygon fill="#FFFFFF" points="569.39,271,571.1488,277.9933,578.2806,279.0596,576.5218,272.0663,569.39,271" style="stroke: #0000FF; stroke-width: 1.0;"/><text fill="#000000" font-family="sans-serif" font-size="13" lengthAdjust="spacingAndGlyphs" textLength="6" x="569.1274" y="291.68">*</text><text fill="#000000" font-family="sans-serif" font-size="13" lengthAdjust="spacingAndGlyphs" textLength="6" x="621.8954" y="320.1343">*</text><!--MD5=[58a674ae787fa3e92dacba7187c75ce0]
reverse link BookItemData to BookLendingData--><path d="M502.87,390.94 C494.74,406.61 485.36,424.68 478.1,438.68 " fill="none" id="BookItemData&lt;-BookLendingData" style="stroke: #0000FF; stroke-width: 1.0;"/><polygon fill="#0000FF" points="509.07,379,502.7536,382.4789,503.5354,389.6475,509.8519,386.1686,509.07,379" style="stroke: #0000FF; stroke-width: 1.0;"/><!--MD5=[d53ed9b8e4007be6b5acf08829aa207b]
@startuml
!include SkinParamClass.iuml

LibraryCode      ..> CatalogCode
CatalogCode      ..> LibrarianCode


MemberData      *- - "*" BookLendingData
MemberCode      ..> BookItemCode

LibrarianCode    ..> BookLendingCode
LibrarianCode    ..> BookItemCode
LibrarianCode    ..> MemberCode

class LibraryCode << (S, lightblue) >>
class CatalogCode << (S, lightblue) >>
class LibrarianCode << (S, lightblue) >>
class MemberCode << (S, lightblue) >>
class BookLendingCode << (S, lightblue) >>
class BookItemCode << (S, lightblue) >>

LibraryData      *- - CatalogData
LibraryData      *- - "*" LibrarianData
LibraryData      *- - "*" MemberData

CatalogData      *- - "*" BookData

BookData         *- - "*" BookItemData
BookData         "*" o- -o "*" AuthorData

BookItemData     *- - BookLendingData

class LibraryData << (D, orchid) >>
class LibrarianData << (D, orchid) >>
class MemberData << (D, orchid) >>
class CatalogData << (D, orchid) >>
class BookData << (D, orchid) >>
class BookItemData << (D, orchid) >>
class AuthorData << (D, orchid) >>
class BookLendingData << (D, orchid) >>

@enduml

@startuml
skinparam class {
  ArrowColor Blue
  BorderColor Blue
}

LibraryCode      ..> CatalogCode
CatalogCode      ..> LibrarianCode


MemberData      *- - "*" BookLendingData
MemberCode      ..> BookItemCode

LibrarianCode    ..> BookLendingCode
LibrarianCode    ..> BookItemCode
LibrarianCode    ..> MemberCode

class LibraryCode << (S, lightblue) >>
class CatalogCode << (S, lightblue) >>
class LibrarianCode << (S, lightblue) >>
class MemberCode << (S, lightblue) >>
class BookLendingCode << (S, lightblue) >>
class BookItemCode << (S, lightblue) >>

LibraryData      *- - CatalogData
LibraryData      *- - "*" LibrarianData
LibraryData      *- - "*" MemberData

CatalogData      *- - "*" BookData

BookData         *- - "*" BookItemData
BookData         "*" o- -o "*" AuthorData

BookItemData     *- - BookLendingData

class LibraryData << (D, orchid) >>
class LibrarianData << (D, orchid) >>
class MemberData << (D, orchid) >>
class CatalogData << (D, orchid) >>
class BookData << (D, orchid) >>
class BookItemData << (D, orchid) >>
class AuthorData << (D, orchid) >>
class BookLendingData << (D, orchid) >>

@enduml

PlantUML version 1.2020.15(Sun Jun 28 14:39:45 IDT 2020)
(GPL source distribution)
Java Runtime: Java(TM) SE Runtime Environment
JVM: Java HotSpot(TM) 64-Bit Server VM
Default Encoding: US-ASCII
Language: en
Country: IL
--></g></svg>