<?xml version="1.0" encoding="UTF-8" standalone="no"?><svg xmlns="http://www.w3.org/2000/svg" xmlns:xlink="http://www.w3.org/1999/xlink" contentScriptType="application/ecmascript" contentStyleType="text/css" height="329px" preserveAspectRatio="none" style="width:690px;height:329px;" version="1.1" viewBox="0 0 690 329" width="690px" zoomAndPan="magnify"><defs><filter height="300%" id="fgialkqs35o68" width="300%" x="-1" y="-1"><feGaussianBlur result="blurOut" stdDeviation="2.0"/><feColorMatrix in="blurOut" result="blurOut2" type="matrix" values="0 0 0 0 0 0 0 0 0 0 0 0 0 0 0 0 0 0 .4 0"/><feOffset dx="4.0" dy="4.0" in="blurOut2" result="blurOut3"/><feBlend in="SourceGraphic" in2="blurOut3" mode="normal"/></filter></defs><g><rect fill="#FEFECE" filter="url(#fgialkqs35o68)" height="48.2656" rx="12.5" ry="12.5" style="stroke:#0000FF;stroke-width:1.5;" width="110" x="10" y="139.4648"/><text fill="#000000" font-family="sans-serif" font-size="24" lengthAdjust="spacing" textLength="90" x="20" y="172.668">SYSTEM</text><rect fill="#FEFECE" filter="url(#fgialkqs35o68)" height="48.2656" rx="12.5" ry="12.5" style="stroke:#0000FF;stroke-width:1.5;" width="87" x="170" y="54.1328"/><text fill="#000000" font-family="sans-serif" font-size="24" lengthAdjust="spacing" textLength="67" x="180" y="87.3359">CODE</text><rect fill="#FEFECE" filter="url(#fgialkqs35o68)" height="48.2656" rx="12.5" ry="12.5" style="stroke:#0000FF;stroke-width:1.5;" width="64" x="307" y="20"/><text fill="#000000" font-family="sans-serif" font-size="24" lengthAdjust="spacing" textLength="26" x="317" y="53.2031">FP</text><path d="M352.94,36.2656 C352.56,36.3056 352.2,36.5656 352,36.9456 C351.74,37.4656 349.82,41.3256 349.44,41.7056 C349.06,42.0856 348.56,42.2656 348,42.2656 L348,50.2656 L355,50.2656 C355.42,50.2656 355.78,50.0056 355.94,49.6456 C355.94,49.6456 358,43.8256 358,43.2656 C358,42.7056 357.56,42.2656 357,42.2656 L354,42.2656 C353.44,42.2656 353,41.7656 353,41.2656 C353,40.7656 353.78,38.1056 353.94,37.5856 C354.1,37.0656 353.84,36.5056 353.32,36.3256 C353.18,36.2856 353.08,36.2456 352.94,36.2656 M344,42.2656 L344,50.2656 L346,50.2656 L346,42.2656 L344,42.2656 " fill="#000000" style="stroke:;stroke-width:0.0;stroke-dasharray:;"/><path d="M257,78.2656 L267,78.2656 C282,78.2656 282,44.1328 297,44.1328 L307,44.1328 " fill="none" style="stroke:#0000FF;stroke-width:3.0;"/><rect fill="#FEFECE" filter="url(#fgialkqs35o68)" height="48.2656" rx="12.5" ry="12.5" style="stroke:#0000FF;stroke-width:1.5;" width="89" x="307" y="88.2656"/><text fill="#000000" font-family="sans-serif" font-size="24" lengthAdjust="spacing" textLength="51" x="317" y="121.4688">OOP</text><path d="M377.94,104.5313 C377.56,104.5713 377.2,104.8313 377,105.2113 C376.74,105.7313 374.82,109.5913 374.44,109.9713 C374.06,110.3513 373.56,110.5313 373,110.5313 L373,118.5313 L380,118.5313 C380.42,118.5313 380.78,118.2713 380.94,117.9113 C380.94,117.9113 383,112.0913 383,111.5313 C383,110.9713 382.56,110.5313 382,110.5313 L379,110.5313 C378.44,110.5313 378,110.0313 378,109.5313 C378,109.0313 378.78,106.3713 378.94,105.8513 C379.1,105.3313 378.84,104.7713 378.32,104.5913 C378.18,104.5513 378.08,104.5113 377.94,104.5313 M369,110.5313 L369,118.5313 L371,118.5313 L371,110.5313 L369,110.5313 " fill="#000000" style="stroke:;stroke-width:0.0;stroke-dasharray:;"/><path d="M257,78.2656 L267,78.2656 C282,78.2656 282,112.3984 297,112.3984 L307,112.3984 " fill="none" style="stroke:#0000FF;stroke-width:3.0;"/><path d="M120,163.5977 L130,163.5977 C145,163.5977 145,78.2656 160,78.2656 L170,78.2656 " fill="none" style="stroke:#0000FF;stroke-width:3.0;"/><rect fill="#FEFECE" filter="url(#fgialkqs35o68)" height="48.2656" rx="12.5" ry="12.5" style="stroke:#0000FF;stroke-width:1.5;" width="87" x="170" y="207.7305"/><text fill="#000000" font-family="sans-serif" font-size="24" lengthAdjust="spacing" textLength="67" x="180" y="240.9336">DATA</text><rect fill="#FF0000" filter="url(#fgialkqs35o68)" height="48.2656" rx="12.5" ry="12.5" style="stroke:#0000FF;stroke-width:1.5;" width="146" x="307" y="156.5313"/><text fill="#000000" font-family="sans-serif" font-size="24" lengthAdjust="spacing" text-decoration="line-through" textLength="100" x="317" y="189.7344">SPECIFIC</text><path d="M418,172.7969 L418,180.7969 L420,180.7969 L420,172.7969 L418,172.7969 M422,172.7969 L422,180.7969 C422.56,180.7969 423.06,180.9769 423.44,181.3569 C423.82,181.7369 425.74,185.5969 426,186.1169 C426.26,186.6369 426.78,186.8969 427.32,186.7369 C427.84,186.5769 428.12,186.0169 427.94,185.4769 C427.78,184.9569 427,182.2969 427,181.7969 C427,181.2969 427.44,180.7969 428,180.7969 L431,180.7969 C431.56,180.7969 432,180.3569 432,179.7969 C432,179.2369 429.94,173.4169 429.94,173.4169 C429.78,173.0569 429.42,172.7969 429,172.7969 L422,172.7969 " fill="#000000" style="stroke:;stroke-width:0.0;stroke-dasharray:;"/><text fill="#000000" font-family="sans-serif" font-size="24" lengthAdjust="spacing" textLength="0" x="443" y="189.7344"/><path d="M257,231.8633 L267,231.8633 C282,231.8633 282,180.6641 297,180.6641 L307,180.6641 " fill="none" style="stroke:#0000FF;stroke-width:3.0;"/><rect fill="#FEFECE" filter="url(#fgialkqs35o68)" height="48.2656" rx="12.5" ry="12.5" style="stroke:#0000FF;stroke-width:1.5;" width="138" x="307" y="224.7969"/><text fill="#000000" font-family="sans-serif" font-size="24" lengthAdjust="spacing" textLength="100" x="317" y="258">GENERIC</text><path d="M426.94,241.0625 C426.56,241.1025 426.2,241.3625 426,241.7425 C425.74,242.2625 423.82,246.1225 423.44,246.5025 C423.06,246.8825 422.56,247.0625 422,247.0625 L422,255.0625 L429,255.0625 C429.42,255.0625 429.78,254.8025 429.94,254.4425 C429.94,254.4425 432,248.6225 432,248.0625 C432,247.5025 431.56,247.0625 431,247.0625 L428,247.0625 C427.44,247.0625 427,246.5625 427,246.0625 C427,245.5625 427.78,242.9025 427.94,242.3825 C428.1,241.8625 427.84,241.3025 427.32,241.1225 C427.18,241.0825 427.08,241.0425 426.94,241.0625 M418,247.0625 L418,255.0625 L420,255.0625 L420,247.0625 L418,247.0625 " fill="#000000" style="stroke:;stroke-width:0.0;stroke-dasharray:;"/><rect fill="#FF0000" filter="url(#fgialkqs35o68)" height="48.2656" rx="12.5" ry="12.5" style="stroke:#0000FF;stroke-width:1.5;" width="156" x="495" y="190.6641"/><text fill="#000000" font-family="sans-serif" font-size="24" lengthAdjust="spacing" text-decoration="line-through" textLength="110" x="505" y="223.8672">MUTABLE</text><path d="M616,206.9297 L616,214.9297 L618,214.9297 L618,206.9297 L616,206.9297 M620,206.9297 L620,214.9297 C620.56,214.9297 621.06,215.1097 621.44,215.4897 C621.82,215.8697 623.74,219.7297 624,220.2497 C624.26,220.7697 624.78,221.0297 625.32,220.8697 C625.84,220.7097 626.12,220.1497 625.94,219.6097 C625.78,219.0897 625,216.4297 625,215.9297 C625,215.4297 625.44,214.9297 626,214.9297 L629,214.9297 C629.56,214.9297 630,214.4897 630,213.9297 C630,213.3697 627.94,207.5497 627.94,207.5497 C627.78,207.1897 627.42,206.9297 627,206.9297 L620,206.9297 " fill="#000000" style="stroke:;stroke-width:0.0;stroke-dasharray:;"/><text fill="#000000" font-family="sans-serif" font-size="24" lengthAdjust="spacing" textLength="0" x="641" y="223.8672"/><path d="M445,248.9297 L455,248.9297 C470,248.9297 470,214.7969 485,214.7969 L495,214.7969 " fill="none" style="stroke:#0000FF;stroke-width:3.0;"/><rect fill="#FEFECE" filter="url(#fgialkqs35o68)" height="48.2656" rx="12.5" ry="12.5" style="stroke:#0000FF;stroke-width:1.5;" width="176" x="495" y="258.9297"/><text fill="#000000" font-family="sans-serif" font-size="24" lengthAdjust="spacing" textLength="138" x="505" y="292.1328">IMMUTABLE</text><path d="M652.94,275.1953 C652.56,275.2353 652.2,275.4953 652,275.8753 C651.74,276.3953 649.82,280.2553 649.44,280.6353 C649.06,281.0153 648.56,281.1953 648,281.1953 L648,289.1953 L655,289.1953 C655.42,289.1953 655.78,288.9353 655.94,288.5753 C655.94,288.5753 658,282.7553 658,282.1953 C658,281.6353 657.56,281.1953 657,281.1953 L654,281.1953 C653.44,281.1953 653,280.6953 653,280.1953 C653,279.6953 653.78,277.0353 653.94,276.5153 C654.1,275.9953 653.84,275.4353 653.32,275.2553 C653.18,275.2153 653.08,275.1753 652.94,275.1953 M644,281.1953 L644,289.1953 L646,289.1953 L646,281.1953 L644,281.1953 " fill="#000000" style="stroke:;stroke-width:0.0;stroke-dasharray:;"/><path d="M445,248.9297 L455,248.9297 C470,248.9297 470,283.0625 485,283.0625 L495,283.0625 " fill="none" style="stroke:#0000FF;stroke-width:3.0;"/><path d="M257,231.8633 L267,231.8633 C282,231.8633 282,248.9297 297,248.9297 L307,248.9297 " fill="none" style="stroke:#0000FF;stroke-width:3.0;"/><path d="M120,163.5977 L130,163.5977 C145,163.5977 145,231.8633 160,231.8633 L170,231.8633 " fill="none" style="stroke:#0000FF;stroke-width:3.0;"/><!--MD5=[4d27a97ec7324ba7e9620eb857698c3d]
@startmindmap
!include SkinParam.iuml

* SYSTEM
** CODE
*** FP<&thumb-up>
*** OOP<&thumb-up>
** DATA
*** <s>SPECIFIC</s><&thumb-down> <<red>>
*** GENERIC<&thumb-up>
**** <s>MUTABLE</s><&thumb-down> <<red>>
**** IMMUTABLE<&thumb-up>

@endmindmap

@startmindmap
<style>
mindmapDiagram {
  node {
    LineColor blue
    FontSize  24
  }
  arrow {
    LineColor blue
    LineThickness 3
  }
  .orange {
    BackgroundColor orange
  }
  .red {
    BackgroundColor red
  }

  .green {
    BackgroundColor lightgreen
  }

}
</style>

* SYSTEM
** CODE
*** FP<&thumb-up>
*** OOP<&thumb-up>
** DATA
*** <s>SPECIFIC</s><&thumb-down> <<red>>
*** GENERIC<&thumb-up>
**** <s>MUTABLE</s><&thumb-down> <<red>>
**** IMMUTABLE<&thumb-up>

@endmindmap

PlantUML version 1.2021.00(Sun Jan 10 12:25:05 IST 2021)
(GPL source distribution)
Java Runtime: Java(TM) SE Runtime Environment
JVM: Java HotSpot(TM) 64-Bit Server VM
Default Encoding: UTF-8
Language: en
Country: IL
--></g></svg>