<?xml version="1.0" encoding="UTF-8" standalone="no"?><svg xmlns="http://www.w3.org/2000/svg" xmlns:xlink="http://www.w3.org/1999/xlink" contentScriptType="application/ecmascript" contentStyleType="text/css" height="326px" preserveAspectRatio="none" style="width:690px;height:326px;" version="1.1" viewBox="0 0 690 326" width="690px" zoomAndPan="magnify"><defs><filter height="300%" id="fgialkqs35o68" width="300%" x="-1" y="-1"><feGaussianBlur result="blurOut" stdDeviation="2.0"/><feColorMatrix in="blurOut" result="blurOut2" type="matrix" values="0 0 0 0 0 0 0 0 0 0 0 0 0 0 0 0 0 0 .4 0"/><feOffset dx="4.0" dy="4.0" in="blurOut2" result="blurOut3"/><feBlend in="SourceGraphic" in2="blurOut3" mode="normal"/></filter></defs><g><rect fill="#FEFECE" filter="url(#fgialkqs35o68)" height="48.2656" rx="12.5" ry="12.5" style="stroke: #0000FF; stroke-width: 1.5;" width="110" x="10" y="139.4648"/><text fill="#000000" font-family="sans-serif" font-size="24" lengthAdjust="spacingAndGlyphs" textLength="90" x="20" y="172.668">SYSTEM</text><rect fill="#FEFECE" filter="url(#fgialkqs35o68)" height="48.2656" rx="12.5" ry="12.5" style="stroke: #0000FF; stroke-width: 1.5;" width="87" x="170" y="54.1328"/><text fill="#000000" font-family="sans-serif" font-size="24" lengthAdjust="spacingAndGlyphs" textLength="67" x="180" y="87.3359">CODE</text><rect fill="#FEFECE" filter="url(#fgialkqs35o68)" height="48.2656" rx="12.5" ry="12.5" style="stroke: #0000FF; stroke-width: 1.5;" width="64" x="307" y="20"/><text fill="#000000" font-family="sans-serif" font-size="24" lengthAdjust="spacingAndGlyphs" textLength="26" x="317" y="53.2031">FP</text><path d="M352.876,36.2656 C352.496,36.3076 352.196,36.5636 352,36.9536 C351.74,37.4736 349.798,41.3236 349.438,41.7036 C349.058,42.0636 348.56,42.2656 348,42.2656 L348,50.2676 L355,50.2676 C355.42,50.2676 355.778,50.0016 355.938,49.6416 C355.938,49.6416 358,43.8256 358,43.2656 C358,42.7056 357.56,42.2656 357,42.2656 L354,42.2656 C353.44,42.2656 353,41.7656 353,41.2656 C353,40.7656 353.778,38.1176 353.938,37.5776 C354.098,37.0376 353.832,36.4876 353.312,36.3276 L352.874,36.2656 M343.998,42.2656 L343.998,50.2656 L345.998,50.2656 L345.998,42.2656 L343.998,42.2656 " fill="#000000" style="stroke: ; stroke-width: 0.0; stroke-dasharray: ;"/><path d="M257,78.2656 L267,78.2656 C282,78.2656 282,44.1328 297,44.1328 L307,44.1328 " fill="none" style="stroke: #0000FF; stroke-width: 3.0;"/><rect fill="#FEFECE" filter="url(#fgialkqs35o68)" height="48.2656" rx="12.5" ry="12.5" style="stroke: #0000FF; stroke-width: 1.5;" width="89" x="307" y="88.2656"/><text fill="#000000" font-family="sans-serif" font-size="24" lengthAdjust="spacingAndGlyphs" textLength="51" x="317" y="121.4688">OOP</text><path d="M377.876,104.5313 C377.496,104.5733 377.196,104.8293 377,105.2193 C376.74,105.7393 374.798,109.5892 374.438,109.9693 C374.058,110.3293 373.56,110.5313 373,110.5313 L373,118.5333 L380,118.5333 C380.42,118.5333 380.778,118.2673 380.938,117.9073 C380.938,117.9073 383,112.0913 383,111.5313 C383,110.9713 382.56,110.5313 382,110.5313 L379,110.5313 C378.44,110.5313 378,110.0313 378,109.5313 C378,109.0313 378.778,106.3833 378.938,105.8433 C379.098,105.3033 378.832,104.7533 378.312,104.5933 L377.874,104.5313 M368.998,110.5313 L368.998,118.5313 L370.998,118.5313 L370.998,110.5313 L368.998,110.5313 " fill="#000000" style="stroke: ; stroke-width: 0.0; stroke-dasharray: ;"/><path d="M257,78.2656 L267,78.2656 C282,78.2656 282,112.3984 297,112.3984 L307,112.3984 " fill="none" style="stroke: #0000FF; stroke-width: 3.0;"/><path d="M120,163.5977 L130,163.5977 C145,163.5977 145,78.2656 160,78.2656 L170,78.2656 " fill="none" style="stroke: #0000FF; stroke-width: 3.0;"/><rect fill="#FEFECE" filter="url(#fgialkqs35o68)" height="48.2656" rx="12.5" ry="12.5" style="stroke: #0000FF; stroke-width: 1.5;" width="87" x="170" y="207.7305"/><text fill="#000000" font-family="sans-serif" font-size="24" lengthAdjust="spacingAndGlyphs" textLength="67" x="180" y="240.9336">DATA</text><rect fill="#FF0000" filter="url(#fgialkqs35o68)" height="48.2656" rx="12.5" ry="12.5" style="stroke: #0000FF; stroke-width: 1.5;" width="146" x="307" y="156.5313"/><text fill="#000000" font-family="sans-serif" font-size="24" lengthAdjust="spacingAndGlyphs" text-decoration="line-through" textLength="100" x="317" y="189.7344">SPECIFIC</text><path d="M418,172.7969 L418,180.7969 L420,180.7969 L420,172.7969 L418,172.7969 M422,172.7969 L422,180.7989 C422.56,180.7989 423.058,181.0009 423.438,181.3609 C423.798,181.7409 425.74,185.5909 426,186.1109 C426.26,186.6309 426.772,186.8969 427.312,186.7369 C427.832,186.5769 428.098,186.0269 427.938,185.4869 C427.778,184.9669 427,182.2989 427,181.7989 C427,181.2989 427.44,180.7989 428,180.7989 L431,180.7989 C431.56,180.7989 432,180.3589 432,179.7989 L429.938,173.4229 C429.778,173.0629 429.42,172.7969 429,172.7969 L422,172.7969 " fill="#000000" style="stroke: ; stroke-width: 0.0; stroke-dasharray: ;"/><text fill="#000000" font-family="sans-serif" font-size="24" lengthAdjust="spacingAndGlyphs" textLength="0" x="443" y="189.7344"/><path d="M257,231.8633 L267,231.8633 C282,231.8633 282,180.6641 297,180.6641 L307,180.6641 " fill="none" style="stroke: #0000FF; stroke-width: 3.0;"/><rect fill="#FEFECE" filter="url(#fgialkqs35o68)" height="48.2656" rx="12.5" ry="12.5" style="stroke: #0000FF; stroke-width: 1.5;" width="138" x="307" y="224.7969"/><text fill="#000000" font-family="sans-serif" font-size="24" lengthAdjust="spacingAndGlyphs" textLength="100" x="317" y="258">GENERIC</text><path d="M426.876,241.0625 C426.496,241.1045 426.196,241.3605 426,241.7505 C425.74,242.2705 423.798,246.1205 423.438,246.5005 C423.058,246.8605 422.56,247.0625 422,247.0625 L422,255.0645 L429,255.0645 C429.42,255.0645 429.778,254.7985 429.938,254.4385 C429.938,254.4385 432,248.6225 432,248.0625 C432,247.5025 431.56,247.0625 431,247.0625 L428,247.0625 C427.44,247.0625 427,246.5625 427,246.0625 C427,245.5625 427.778,242.9145 427.938,242.3745 C428.098,241.8345 427.832,241.2845 427.312,241.1245 L426.874,241.0625 M417.998,247.0625 L417.998,255.0625 L419.998,255.0625 L419.998,247.0625 L417.998,247.0625 " fill="#000000" style="stroke: ; stroke-width: 0.0; stroke-dasharray: ;"/><rect fill="#FF0000" filter="url(#fgialkqs35o68)" height="48.2656" rx="12.5" ry="12.5" style="stroke: #0000FF; stroke-width: 1.5;" width="156" x="495" y="190.6641"/><text fill="#000000" font-family="sans-serif" font-size="24" lengthAdjust="spacingAndGlyphs" text-decoration="line-through" textLength="110" x="505" y="223.8672">MUTABLE</text><path d="M616,206.9297 L616,214.9297 L618,214.9297 L618,206.9297 L616,206.9297 M620,206.9297 L620,214.9317 C620.56,214.9317 621.058,215.1337 621.438,215.4937 C621.798,215.8737 623.74,219.7237 624,220.2437 C624.26,220.7637 624.772,221.0297 625.312,220.8697 C625.832,220.7097 626.098,220.1597 625.938,219.6197 C625.778,219.0997 625,216.4317 625,215.9317 C625,215.4317 625.44,214.9317 626,214.9317 L629,214.9317 C629.56,214.9317 630,214.4917 630,213.9317 L627.938,207.5557 C627.778,207.1957 627.42,206.9297 627,206.9297 L620,206.9297 " fill="#000000" style="stroke: ; stroke-width: 0.0; stroke-dasharray: ;"/><text fill="#000000" font-family="sans-serif" font-size="24" lengthAdjust="spacingAndGlyphs" textLength="0" x="641" y="223.8672"/><path d="M445,248.9297 L455,248.9297 C470,248.9297 470,214.7969 485,214.7969 L495,214.7969 " fill="none" style="stroke: #0000FF; stroke-width: 3.0;"/><rect fill="#FEFECE" filter="url(#fgialkqs35o68)" height="48.2656" rx="12.5" ry="12.5" style="stroke: #0000FF; stroke-width: 1.5;" width="176" x="495" y="258.9297"/><text fill="#000000" font-family="sans-serif" font-size="24" lengthAdjust="spacingAndGlyphs" textLength="138" x="505" y="292.1328">IMMUTABLE</text><path d="M652.876,275.1953 C652.496,275.2373 652.196,275.4933 652,275.8833 C651.74,276.4033 649.798,280.2533 649.438,280.6333 C649.058,280.9933 648.56,281.1953 648,281.1953 L648,289.1973 L655,289.1973 C655.42,289.1973 655.778,288.9313 655.938,288.5713 C655.938,288.5713 658,282.7553 658,282.1953 C658,281.6353 657.56,281.1953 657,281.1953 L654,281.1953 C653.44,281.1953 653,280.6953 653,280.1953 C653,279.6953 653.778,277.0473 653.938,276.5073 C654.098,275.9673 653.832,275.4173 653.312,275.2573 L652.874,275.1953 M643.998,281.1953 L643.998,289.1953 L645.998,289.1953 L645.998,281.1953 L643.998,281.1953 " fill="#000000" style="stroke: ; stroke-width: 0.0; stroke-dasharray: ;"/><path d="M445,248.9297 L455,248.9297 C470,248.9297 470,283.0625 485,283.0625 L495,283.0625 " fill="none" style="stroke: #0000FF; stroke-width: 3.0;"/><path d="M257,231.8633 L267,231.8633 C282,231.8633 282,248.9297 297,248.9297 L307,248.9297 " fill="none" style="stroke: #0000FF; stroke-width: 3.0;"/><path d="M120,163.5977 L130,163.5977 C145,163.5977 145,231.8633 160,231.8633 L170,231.8633 " fill="none" style="stroke: #0000FF; stroke-width: 3.0;"/><!--MD5=[a0ab0fdad1174631e9ecdcd62353d2f6]
@startmindmap
!include SkinParam.iuml

* SYSTEM
** CODE
*** FP<&thumb-up>
*** OOP<&thumb-up>
** DATA
*** <s>SPECIFIC</s><&thumb-down> <<red>>
*** GENERIC<&thumb-up>
**** <s>MUTABLE</s><&thumb-down> <<red>>
**** IMMUTABLE<&thumb-up>

@endmindmap

@startmindmap
<style>
mindmapDiagram {
  node {
    LineColor blue
    FontSize  24
  }
  arrow {
    LineColor blue
    LineThickness 3
  }
  .orange {
    BackgroundColor orange
  }
  .red {
    BackgroundColor red
  }

  .green {
    BackgroundColor lightgreen
  }

}
</style>

* SYSTEM
** CODE
*** FP<&thumb-up>
*** OOP<&thumb-up>
** DATA
*** <s>SPECIFIC</s><&thumb-down> <<red>>
*** GENERIC<&thumb-up>
**** <s>MUTABLE</s><&thumb-down> <<red>>
**** IMMUTABLE<&thumb-up>

@endmindmap

PlantUML version 1.2020.15(Sun Jun 28 14:39:45 IDT 2020)
(GPL source distribution)
Java Runtime: Java(TM) SE Runtime Environment
JVM: Java HotSpot(TM) 64-Bit Server VM
Default Encoding: US-ASCII
Language: en
Country: IL
--></g></svg>