<?xml version="1.0" encoding="UTF-8" standalone="no"?><svg xmlns="http://www.w3.org/2000/svg" xmlns:xlink="http://www.w3.org/1999/xlink" contentScriptType="application/ecmascript" contentStyleType="text/css" height="676px" preserveAspectRatio="none" style="width:892px;height:676px;" version="1.1" viewBox="0 0 892 676" width="892px" zoomAndPan="magnify"><defs><filter height="300%" id="f19ghdl5jpj5qi" width="300%" x="-1" y="-1"><feGaussianBlur result="blurOut" stdDeviation="2.0"/><feColorMatrix in="blurOut" result="blurOut2" type="matrix" values="0 0 0 0 0 0 0 0 0 0 0 0 0 0 0 0 0 0 .4 0"/><feOffset dx="4.0" dy="4.0" in="blurOut2" result="blurOut3"/><feBlend in="SourceGraphic" in2="blurOut3" mode="normal"/></filter></defs><g><rect fill="#FEFECE" filter="url(#f19ghdl5jpj5qi)" height="34.1328" style="stroke: #A80036; stroke-width: 1.5;" width="61" x="406.25" y="10"/><text fill="#000000" font-family="sans-serif" font-size="12" lengthAdjust="spacingAndGlyphs" textLength="41" x="416.25" y="31.6016">catalog</text><line style="stroke: #A80036; stroke-width: 1.5;" x1="436.75" x2="436.75" y1="44.1328" y2="64.1328"/><line style="stroke: #A80036; stroke-width: 1.5;" x1="56" x2="56" y1="64.1328" y2="84.1328"/><rect fill="#FEFECE" filter="url(#f19ghdl5jpj5qi)" height="34.1328" style="stroke: #A80036; stroke-width: 1.5;" width="92" x="10" y="84.1328"/><text fill="#000000" font-family="sans-serif" font-size="12" lengthAdjust="spacingAndGlyphs" textLength="72" x="20" y="105.7344">booksByIsbn</text><line style="stroke: #A80036; stroke-width: 1.5;" x1="56" x2="233.5" y1="150.332" y2="150.332"/><rect fill="#FEFECE" filter="url(#f19ghdl5jpj5qi)" height="34.1328" style="stroke: #A80036; stroke-width: 1.5;" width="131" x="233.5" y="133.2656"/><text fill="#000000" font-family="sans-serif" font-size="12" lengthAdjust="spacingAndGlyphs" textLength="111" x="243.5" y="154.8672">978-1779501127</text><line style="stroke: #A80036; stroke-width: 1.5;" x1="237.5" x2="299" y1="199.4648" y2="199.4648"/><rect fill="#FEFECE" filter="url(#f19ghdl5jpj5qi)" height="34.1328" style="stroke: #A80036; stroke-width: 1.5;" width="41" x="196.5" y="182.3984"/><text fill="#000000" font-family="sans-serif" font-size="12" lengthAdjust="spacingAndGlyphs" textLength="21" x="206.5" y="204">title</text><line style="stroke: #A80036; stroke-width: 1.5;" x1="217" x2="227" y1="239.5977" y2="239.5977"/><text fill="#000000" font-family="sans-serif" font-size="12" lengthAdjust="spacingAndGlyphs" textLength="59" x="227" y="244.1328">Watchmen</text><line style="stroke: #A80036; stroke-width: 1.5;" x1="217" x2="217" y1="216.5313" y2="239.5977"/><line style="stroke: #A80036; stroke-width: 1.5;" x1="221" x2="299" y1="279.7305" y2="279.7305"/><rect fill="#FEFECE" filter="url(#f19ghdl5jpj5qi)" height="34.1328" style="stroke: #A80036; stroke-width: 1.5;" width="74" x="147" y="262.6641"/><text fill="#000000" font-family="sans-serif" font-size="12" lengthAdjust="spacingAndGlyphs" textLength="54" x="157" y="284.2656">authorIds</text><line style="stroke: #A80036; stroke-width: 1.5;" x1="94" x2="184" y1="328.8633" y2="328.8633"/><rect fill="#FEFECE" filter="url(#f19ghdl5jpj5qi)" height="34.1328" style="stroke: #A80036; stroke-width: 1.5;" width="28" x="66" y="311.7969"/><text fill="#000000" font-family="sans-serif" font-size="12" lengthAdjust="spacingAndGlyphs" textLength="8" x="76" y="333.3984">1</text><line style="stroke: #A80036; stroke-width: 1.5;" x1="80" x2="90" y1="368.9961" y2="368.9961"/><text fill="#000000" font-family="sans-serif" font-size="12" lengthAdjust="spacingAndGlyphs" textLength="81" x="90" y="373.5313">dave-gibbons</text><line style="stroke: #A80036; stroke-width: 1.5;" x1="80" x2="80" y1="345.9297" y2="368.9961"/><line style="stroke: #A80036; stroke-width: 1.5;" x1="184" x2="194" y1="328.8633" y2="328.8633"/><rect fill="#FEFECE" filter="url(#f19ghdl5jpj5qi)" height="34.1328" style="stroke: #A80036; stroke-width: 1.5;" width="28" x="194" y="311.7969"/><text fill="#000000" font-family="sans-serif" font-size="12" lengthAdjust="spacingAndGlyphs" textLength="8" x="204" y="333.3984">0</text><line style="stroke: #A80036; stroke-width: 1.5;" x1="208" x2="218" y1="368.9961" y2="368.9961"/><text fill="#000000" font-family="sans-serif" font-size="12" lengthAdjust="spacingAndGlyphs" textLength="68" x="218" y="373.5313">alan-moore</text><line style="stroke: #A80036; stroke-width: 1.5;" x1="208" x2="208" y1="345.9297" y2="368.9961"/><line style="stroke: #A80036; stroke-width: 1.5;" x1="184" x2="184" y1="296.7969" y2="328.8633"/><line style="stroke: #A80036; stroke-width: 1.5;" x1="299" x2="309" y1="199.4648" y2="199.4648"/><rect fill="#FEFECE" filter="url(#f19ghdl5jpj5qi)" height="34.1328" style="stroke: #A80036; stroke-width: 1.5;" width="44" x="309" y="182.3984"/><text fill="#000000" font-family="sans-serif" font-size="12" lengthAdjust="spacingAndGlyphs" textLength="24" x="319" y="204">isbn</text><line style="stroke: #A80036; stroke-width: 1.5;" x1="331" x2="341" y1="239.5977" y2="239.5977"/><text fill="#000000" font-family="sans-serif" font-size="12" lengthAdjust="spacingAndGlyphs" textLength="111" x="341" y="244.1328">978-1779501127</text><line style="stroke: #A80036; stroke-width: 1.5;" x1="331" x2="331" y1="216.5313" y2="239.5977"/><line style="stroke: #A80036; stroke-width: 1.5;" x1="299" x2="309" y1="279.7305" y2="279.7305"/><rect fill="#FEFECE" filter="url(#f19ghdl5jpj5qi)" height="34.1328" style="stroke: #A80036; stroke-width: 1.5;" width="109" x="309" y="262.6641"/><text fill="#000000" font-family="sans-serif" font-size="12" lengthAdjust="spacingAndGlyphs" textLength="89" x="319" y="284.2656">publicationYear</text><line style="stroke: #A80036; stroke-width: 1.5;" x1="363.5" x2="373.5" y1="319.8633" y2="319.8633"/><text fill="#000000" font-family="sans-serif" font-size="12" lengthAdjust="spacingAndGlyphs" textLength="32" x="373.5" y="324.3984">1987</text><line style="stroke: #A80036; stroke-width: 1.5;" x1="363.5" x2="363.5" y1="296.7969" y2="319.8633"/><line style="stroke: #A80036; stroke-width: 1.5;" x1="299" x2="407.5" y1="359.9961" y2="359.9961"/><rect fill="#FEFECE" filter="url(#f19ghdl5jpj5qi)" height="34.1328" style="stroke: #A80036; stroke-width: 1.5;" width="80" x="407.5" y="342.9297"/><text fill="#000000" font-family="sans-serif" font-size="12" lengthAdjust="spacingAndGlyphs" textLength="60" x="417.5" y="364.5313">bookItems</text><line style="stroke: #A80036; stroke-width: 1.5;" x1="337" x2="447.5" y1="409.1289" y2="409.1289"/><rect fill="#FEFECE" filter="url(#f19ghdl5jpj5qi)" height="34.1328" style="stroke: #A80036; stroke-width: 1.5;" width="28" x="309" y="392.0625"/><text fill="#000000" font-family="sans-serif" font-size="12" lengthAdjust="spacingAndGlyphs" textLength="8" x="319" y="413.6641">1</text><line style="stroke: #A80036; stroke-width: 1.5;" x1="323" x2="333" y1="458.2617" y2="458.2617"/><rect fill="#FEFECE" filter="url(#f19ghdl5jpj5qi)" height="34.1328" style="stroke: #A80036; stroke-width: 1.5;" width="31" x="333" y="441.1953"/><text fill="#000000" font-family="sans-serif" font-size="12" lengthAdjust="spacingAndGlyphs" textLength="11" x="343" y="462.7969">id</text><line style="stroke: #A80036; stroke-width: 1.5;" x1="348.5" x2="358.5" y1="498.3945" y2="498.3945"/><text fill="#000000" font-family="sans-serif" font-size="12" lengthAdjust="spacingAndGlyphs" textLength="76" x="358.5" y="502.9297">book-item-2</text><line style="stroke: #A80036; stroke-width: 1.5;" x1="348.5" x2="348.5" y1="475.3281" y2="498.3945"/><line style="stroke: #A80036; stroke-width: 1.5;" x1="323" x2="333" y1="538.5273" y2="538.5273"/><rect fill="#FEFECE" filter="url(#f19ghdl5jpj5qi)" height="34.1328" style="stroke: #A80036; stroke-width: 1.5;" width="56" x="333" y="521.4609"/><text fill="#000000" font-family="sans-serif" font-size="12" lengthAdjust="spacingAndGlyphs" textLength="36" x="343" y="543.0625">rackId</text><line style="stroke: #A80036; stroke-width: 1.5;" x1="361" x2="371" y1="578.6602" y2="578.6602"/><text fill="#000000" font-family="sans-serif" font-size="12" lengthAdjust="spacingAndGlyphs" textLength="48" x="371" y="583.1953">rack-17</text><line style="stroke: #A80036; stroke-width: 1.5;" x1="361" x2="361" y1="555.5938" y2="578.6602"/><line style="stroke: #A80036; stroke-width: 1.5;" x1="323" x2="333" y1="618.793" y2="618.793"/><rect fill="#FEFECE" filter="url(#f19ghdl5jpj5qi)" height="34.1328" style="stroke: #A80036; stroke-width: 1.5;" width="53" x="333" y="601.7266"/><text fill="#000000" font-family="sans-serif" font-size="12" lengthAdjust="spacingAndGlyphs" textLength="33" x="343" y="623.3281">isLent</text><line style="stroke: #A80036; stroke-width: 1.5;" x1="359.5" x2="369.5" y1="658.9258" y2="658.9258"/><text fill="#000000" font-family="sans-serif" font-size="12" lengthAdjust="spacingAndGlyphs" textLength="27" x="369.5" y="663.4609">false</text><line style="stroke: #A80036; stroke-width: 1.5;" x1="359.5" x2="359.5" y1="635.8594" y2="658.9258"/><line style="stroke: #A80036; stroke-width: 1.5;" x1="323" x2="323" y1="426.1953" y2="618.793"/><line style="stroke: #A80036; stroke-width: 1.5;" x1="447.5" x2="457.5" y1="409.1289" y2="409.1289"/><rect fill="#FEFECE" filter="url(#f19ghdl5jpj5qi)" height="34.1328" style="stroke: #A80036; stroke-width: 1.5;" width="28" x="457.5" y="392.0625"/><text fill="#000000" font-family="sans-serif" font-size="12" lengthAdjust="spacingAndGlyphs" textLength="8" x="467.5" y="413.6641">0</text><line style="stroke: #A80036; stroke-width: 1.5;" x1="471.5" x2="481.5" y1="458.2617" y2="458.2617"/><rect fill="#FEFECE" filter="url(#f19ghdl5jpj5qi)" height="34.1328" style="stroke: #A80036; stroke-width: 1.5;" width="31" x="481.5" y="441.1953"/><text fill="#000000" font-family="sans-serif" font-size="12" lengthAdjust="spacingAndGlyphs" textLength="11" x="491.5" y="462.7969">id</text><line style="stroke: #A80036; stroke-width: 1.5;" x1="497" x2="507" y1="498.3945" y2="498.3945"/><text fill="#000000" font-family="sans-serif" font-size="12" lengthAdjust="spacingAndGlyphs" textLength="76" x="507" y="502.9297">book-item-1</text><line style="stroke: #A80036; stroke-width: 1.5;" x1="497" x2="497" y1="475.3281" y2="498.3945"/><line style="stroke: #A80036; stroke-width: 1.5;" x1="471.5" x2="481.5" y1="538.5273" y2="538.5273"/><rect fill="#FEFECE" filter="url(#f19ghdl5jpj5qi)" height="34.1328" style="stroke: #A80036; stroke-width: 1.5;" width="56" x="481.5" y="521.4609"/><text fill="#000000" font-family="sans-serif" font-size="12" lengthAdjust="spacingAndGlyphs" textLength="36" x="491.5" y="543.0625">rackId</text><line style="stroke: #A80036; stroke-width: 1.5;" x1="509.5" x2="519.5" y1="578.6602" y2="578.6602"/><text fill="#000000" font-family="sans-serif" font-size="12" lengthAdjust="spacingAndGlyphs" textLength="48" x="519.5" y="583.1953">rack-17</text><line style="stroke: #A80036; stroke-width: 1.5;" x1="509.5" x2="509.5" y1="555.5938" y2="578.6602"/><line style="stroke: #A80036; stroke-width: 1.5;" x1="471.5" x2="481.5" y1="618.793" y2="618.793"/><rect fill="#FEFECE" filter="url(#f19ghdl5jpj5qi)" height="34.1328" style="stroke: #A80036; stroke-width: 1.5;" width="53" x="481.5" y="601.7266"/><text fill="#000000" font-family="sans-serif" font-size="12" lengthAdjust="spacingAndGlyphs" textLength="33" x="491.5" y="623.3281">isLent</text><line style="stroke: #A80036; stroke-width: 1.5;" x1="508" x2="518" y1="658.9258" y2="658.9258"/><text fill="#000000" font-family="sans-serif" font-size="12" lengthAdjust="spacingAndGlyphs" textLength="23" x="518" y="663.4609">true</text><line style="stroke: #A80036; stroke-width: 1.5;" x1="508" x2="508" y1="635.8594" y2="658.9258"/><line style="stroke: #A80036; stroke-width: 1.5;" x1="471.5" x2="471.5" y1="426.1953" y2="618.793"/><line style="stroke: #A80036; stroke-width: 1.5;" x1="447.5" x2="447.5" y1="377.0625" y2="409.1289"/><line style="stroke: #A80036; stroke-width: 1.5;" x1="299" x2="299" y1="167.3984" y2="359.9961"/><line style="stroke: #A80036; stroke-width: 1.5;" x1="56" x2="56" y1="118.2656" y2="150.332"/><line style="stroke: #A80036; stroke-width: 1.5;" x1="649.5" x2="649.5" y1="64.1328" y2="84.1328"/><rect fill="#FEFECE" filter="url(#f19ghdl5jpj5qi)" height="34.1328" style="stroke: #A80036; stroke-width: 1.5;" width="87" x="606" y="84.1328"/><text fill="#000000" font-family="sans-serif" font-size="12" lengthAdjust="spacingAndGlyphs" textLength="67" x="616" y="105.7344">authorsById</text><line style="stroke: #A80036; stroke-width: 1.5;" x1="649.5" x2="659.5" y1="150.332" y2="150.332"/><rect fill="#FEFECE" filter="url(#f19ghdl5jpj5qi)" height="34.1328" style="stroke: #A80036; stroke-width: 1.5;" width="88" x="659.5" y="133.2656"/><text fill="#000000" font-family="sans-serif" font-size="12" lengthAdjust="spacingAndGlyphs" textLength="68" x="669.5" y="154.8672">alan-moore</text><line style="stroke: #A80036; stroke-width: 1.5;" x1="703.5" x2="713.5" y1="199.4648" y2="199.4648"/><rect fill="#FEFECE" filter="url(#f19ghdl5jpj5qi)" height="34.1328" style="stroke: #A80036; stroke-width: 1.5;" width="52" x="713.5" y="182.3984"/><text fill="#000000" font-family="sans-serif" font-size="12" lengthAdjust="spacingAndGlyphs" textLength="32" x="723.5" y="204">name</text><line style="stroke: #A80036; stroke-width: 1.5;" x1="739.5" x2="749.5" y1="239.5977" y2="239.5977"/><text fill="#000000" font-family="sans-serif" font-size="12" lengthAdjust="spacingAndGlyphs" textLength="65" x="749.5" y="244.1328">Alan Moore</text><line style="stroke: #A80036; stroke-width: 1.5;" x1="739.5" x2="739.5" y1="216.5313" y2="239.5977"/><line style="stroke: #A80036; stroke-width: 1.5;" x1="703.5" x2="713.5" y1="279.7305" y2="279.7305"/><rect fill="#FEFECE" filter="url(#f19ghdl5jpj5qi)" height="34.1328" style="stroke: #A80036; stroke-width: 1.5;" width="79" x="713.5" y="262.6641"/><text fill="#000000" font-family="sans-serif" font-size="12" lengthAdjust="spacingAndGlyphs" textLength="59" x="723.5" y="284.2656">bookIsbns</text><line style="stroke: #A80036; stroke-width: 1.5;" x1="753" x2="763" y1="328.8633" y2="328.8633"/><rect fill="#FEFECE" filter="url(#f19ghdl5jpj5qi)" height="34.1328" style="stroke: #A80036; stroke-width: 1.5;" width="28" x="763" y="311.7969"/><text fill="#000000" font-family="sans-serif" font-size="12" lengthAdjust="spacingAndGlyphs" textLength="8" x="773" y="333.3984">0</text><line style="stroke: #A80036; stroke-width: 1.5;" x1="753" x2="763" y1="368.9961" y2="368.9961"/><text fill="#000000" font-family="sans-serif" font-size="12" lengthAdjust="spacingAndGlyphs" textLength="111" x="763" y="373.5313">978-1779501127</text><line style="stroke: #A80036; stroke-width: 1.5;" x1="753" x2="753" y1="296.7969" y2="368.9961"/><line style="stroke: #A80036; stroke-width: 1.5;" x1="703.5" x2="703.5" y1="167.3984" y2="279.7305"/><line style="stroke: #A80036; stroke-width: 1.5;" x1="649.5" x2="659.5" y1="409.1289" y2="409.1289"/><rect fill="#FEFECE" filter="url(#f19ghdl5jpj5qi)" height="34.1328" style="stroke: #A80036; stroke-width: 1.5;" width="101" x="659.5" y="392.0625"/><text fill="#000000" font-family="sans-serif" font-size="12" lengthAdjust="spacingAndGlyphs" textLength="81" x="669.5" y="413.6641">dave-gibbons</text><line style="stroke: #A80036; stroke-width: 1.5;" x1="710" x2="720" y1="458.2617" y2="458.2617"/><rect fill="#FEFECE" filter="url(#f19ghdl5jpj5qi)" height="34.1328" style="stroke: #A80036; stroke-width: 1.5;" width="52" x="720" y="441.1953"/><text fill="#000000" font-family="sans-serif" font-size="12" lengthAdjust="spacingAndGlyphs" textLength="32" x="730" y="462.7969">name</text><line style="stroke: #A80036; stroke-width: 1.5;" x1="746" x2="756" y1="498.3945" y2="498.3945"/><text fill="#000000" font-family="sans-serif" font-size="12" lengthAdjust="spacingAndGlyphs" textLength="81" x="756" y="502.9297">Dave Gibbons</text><line style="stroke: #A80036; stroke-width: 1.5;" x1="746" x2="746" y1="475.3281" y2="498.3945"/><line style="stroke: #A80036; stroke-width: 1.5;" x1="710" x2="720" y1="538.5273" y2="538.5273"/><rect fill="#FEFECE" filter="url(#f19ghdl5jpj5qi)" height="34.1328" style="stroke: #A80036; stroke-width: 1.5;" width="79" x="720" y="521.4609"/><text fill="#000000" font-family="sans-serif" font-size="12" lengthAdjust="spacingAndGlyphs" textLength="59" x="730" y="543.0625">bookIsbns</text><line style="stroke: #A80036; stroke-width: 1.5;" x1="759.5" x2="769.5" y1="587.6602" y2="587.6602"/><rect fill="#FEFECE" filter="url(#f19ghdl5jpj5qi)" height="34.1328" style="stroke: #A80036; stroke-width: 1.5;" width="28" x="769.5" y="570.5938"/><text fill="#000000" font-family="sans-serif" font-size="12" lengthAdjust="spacingAndGlyphs" textLength="8" x="779.5" y="592.1953">0</text><line style="stroke: #A80036; stroke-width: 1.5;" x1="759.5" x2="769.5" y1="627.793" y2="627.793"/><text fill="#000000" font-family="sans-serif" font-size="12" lengthAdjust="spacingAndGlyphs" textLength="111" x="769.5" y="632.3281">978-1779501127</text><line style="stroke: #A80036; stroke-width: 1.5;" x1="759.5" x2="759.5" y1="555.5938" y2="627.793"/><line style="stroke: #A80036; stroke-width: 1.5;" x1="710" x2="710" y1="426.1953" y2="538.5273"/><line style="stroke: #A80036; stroke-width: 1.5;" x1="649.5" x2="649.5" y1="118.2656" y2="409.1289"/><line style="stroke: #A80036; stroke-width: 1.5;" x1="56" x2="649.5" y1="64.1328" y2="64.1328"/><!--MD5=[29797766c6bb5c81e5352b2c34439c33]
@startwbs
+ catalog
++ booksByIsbn
+++ 978-1779501127
++++ isbn
+++++_ 978-1779501127
+++- title
+++++_ Watchmen
++++ publicationYear
+++++_ 1987
+++- authorIds
+++++ 0
++++++_ alan-moore
++++- 1
++++++_ dave-gibbons
++++ bookItems
+++++ 0
++++++ id
+++++++_ book-item-1
++++++ rackId
+++++++_ rack-17
++++++ isLent
+++++++_ true
++++- 1
++++++ id
+++++++_ book-item-2
++++++ rackId
+++++++_ rack-17
++++++ isLent
+++++++_ false
++ authorsById
+++ alan-moore
++++ name
+++++_ Alan Moore
++++ bookIsbns
+++++ 0
+++++_ 978-1779501127
+++ dave-gibbons
++++ name
+++++_ Dave Gibbons
++++ bookIsbns
+++++ 0
+++++_ 978-1779501127

@endwbs

PlantUML version 1.2020.15(Sun Jun 28 14:39:45 IDT 2020)
(GPL source distribution)
Java Runtime: Java(TM) SE Runtime Environment
JVM: Java HotSpot(TM) 64-Bit Server VM
Default Encoding: US-ASCII
Language: en
Country: IL
--></g></svg>