<?xml version="1.0" encoding="UTF-8" standalone="no"?><svg xmlns="http://www.w3.org/2000/svg" xmlns:xlink="http://www.w3.org/1999/xlink" contentScriptType="application/ecmascript" contentStyleType="text/css" height="361px" preserveAspectRatio="none" style="width:878px;height:361px;background:#FFFFFF;" version="1.1" viewBox="0 0 878 361" width="878px" zoomAndPan="magnify"><defs><filter height="300%" id="f1hnoi95g1a87j" width="300%" x="-1" y="-1"><feGaussianBlur result="blurOut" stdDeviation="2.0"/><feColorMatrix in="blurOut" result="blurOut2" type="matrix" values="0 0 0 0 0 0 0 0 0 0 0 0 0 0 0 0 0 0 .4 0"/><feOffset dx="4.0" dy="4.0" in="blurOut2" result="blurOut3"/><feBlend in="SourceGraphic" in2="blurOut3" mode="normal"/></filter></defs><g><rect fill="#FEFECE" filter="url(#f1hnoi95g1a87j)" height="47.9375" rx="12.5" ry="12.5" style="stroke:#0000FF;stroke-width:1.5;" width="320" x="10" y="155.875"/><text fill="#000000" font-family="sans-serif" font-size="24" lengthAdjust="spacing" textLength="300" x="20" y="188.1523">Separate Code from Data</text><rect fill="#FEFECE" filter="url(#f1hnoi95g1a87j)" height="47.9375" rx="12.5" ry="12.5" style="stroke:#0000FF;stroke-width:1.5;" width="80" x="380" y="53.9688"/><text fill="#000000" font-family="sans-serif" font-size="24" lengthAdjust="spacing" textLength="60" x="390" y="86.2461">Code</text><rect fill="#FEFECE" filter="url(#f1hnoi95g1a87j)" height="47.9375" rx="12.5" ry="12.5" style="stroke:#0000FF;stroke-width:1.5;" width="247" x="510" y="20"/><text fill="#000000" font-family="sans-serif" font-size="24" lengthAdjust="spacing" textLength="227" x="520" y="52.2773">Stateless Functions</text><path d="M460,77.9375 L470,77.9375 C485,77.9375 485,43.9688 500,43.9688 L510,43.9688 " fill="none" style="stroke:#0000FF;stroke-width:3.0;"/><rect fill="#FEFECE" filter="url(#f1hnoi95g1a87j)" height="47.9375" rx="12.5" ry="12.5" style="stroke:#0000FF;stroke-width:1.5;" width="349" x="510" y="87.9375"/><text fill="#000000" font-family="sans-serif" font-size="24" lengthAdjust="spacing" textLength="329" x="520" y="120.2148">Classes with static methods</text><path d="M460,77.9375 L470,77.9375 C485,77.9375 485,111.9063 500,111.9063 L510,111.9063 " fill="none" style="stroke:#0000FF;stroke-width:3.0;"/><path d="M330,179.8438 L340,179.8438 C355,179.8438 355,77.9375 370,77.9375 L380,77.9375 " fill="none" style="stroke:#0000FF;stroke-width:3.0;"/><rect fill="#FEFECE" filter="url(#f1hnoi95g1a87j)" height="47.9375" rx="12.5" ry="12.5" style="stroke:#0000FF;stroke-width:1.5;" width="75" x="380" y="223.8125"/><text fill="#000000" font-family="sans-serif" font-size="24" lengthAdjust="spacing" textLength="55" x="390" y="256.0898">Data</text><rect fill="#FEFECE" filter="url(#f1hnoi95g1a87j)" height="47.9375" rx="12.5" ry="12.5" style="stroke:#0000FF;stroke-width:1.5;" width="115" x="505" y="155.875"/><text fill="#000000" font-family="sans-serif" font-size="24" lengthAdjust="spacing" textLength="95" x="515" y="188.1523">Records</text><path d="M455,247.7813 L465,247.7813 C480,247.7813 480,179.8438 495,179.8438 L505,179.8438 " fill="none" style="stroke:#0000FF;stroke-width:3.0;"/><rect fill="#FEFECE" filter="url(#f1hnoi95g1a87j)" height="47.9375" rx="12.5" ry="12.5" style="stroke:#0000FF;stroke-width:1.5;" width="345" x="505" y="223.8125"/><text fill="#000000" font-family="sans-serif" font-size="24" lengthAdjust="spacing" textLength="325" x="515" y="256.0898">Classes with members only</text><path d="M455,247.7813 L465,247.7813 C480,247.7813 480,247.7813 495,247.7813 L505,247.7813 " fill="none" style="stroke:#0000FF;stroke-width:3.0;"/><rect fill="#FEFECE" filter="url(#f1hnoi95g1a87j)" height="47.9375" rx="12.5" ry="12.5" style="stroke:#0000FF;stroke-width:1.5;" width="164" x="505" y="291.75"/><text fill="#000000" font-family="sans-serif" font-size="24" lengthAdjust="spacing" textLength="144" x="515" y="324.0273">String maps</text><path d="M455,247.7813 L465,247.7813 C480,247.7813 480,315.7188 495,315.7188 L505,315.7188 " fill="none" style="stroke:#0000FF;stroke-width:3.0;"/><path d="M330,179.8438 L340,179.8438 C355,179.8438 355,247.7813 370,247.7813 L380,247.7813 " fill="none" style="stroke:#0000FF;stroke-width:3.0;"/><!--MD5=[679c8b52d94aa50f35e2acc56720319a]
@startmindmap
!include SkinParam.iuml
* Separate Code from Data
** Code
*** Stateless Functions
*** Classes with static methods
** Data
*** Records
*** Classes with members only
*** String maps
@endmindmap

@startmindmap
<style>
mindmapDiagram {
  node {
    LineColor blue
    FontSize  24
  }
  arrow {
    LineColor blue
    LineThickness 3
  }
  .orange {
    BackgroundColor orange
  }
  .red {
    BackgroundColor red
  }

  .green {
    BackgroundColor lightgreen
  }

}
</style>
* Separate Code from Data
** Code
*** Stateless Functions
*** Classes with static methods
** Data
*** Records
*** Classes with members only
*** String maps
@endmindmap

PlantUML version 1.2021.7(Sun May 23 15:40:07 IDT 2021)
(GPL source distribution)
Java Runtime: OpenJDK Runtime Environment
JVM: OpenJDK 64-Bit Server VM
Default Encoding: UTF-8
Language: en
Country: IL
--></g></svg>