<?xml version="1.0" encoding="UTF-8" standalone="no"?><svg xmlns="http://www.w3.org/2000/svg" xmlns:xlink="http://www.w3.org/1999/xlink" contentScriptType="application/ecmascript" contentStyleType="text/css" height="155px" preserveAspectRatio="none" style="width:870px;height:155px;" version="1.1" viewBox="0 0 870 155" width="870px" zoomAndPan="magnify"><defs><filter height="300%" id="f1457kcu4jwe06" width="300%" x="-1" y="-1"><feGaussianBlur result="blurOut" stdDeviation="2.0"/><feColorMatrix in="blurOut" result="blurOut2" type="matrix" values="0 0 0 0 0 0 0 0 0 0 0 0 0 0 0 0 0 0 .4 0"/><feOffset dx="4.0" dy="4.0" in="blurOut2" result="blurOut3"/><feBlend in="SourceGraphic" in2="blurOut3" mode="normal"/></filter></defs><g><rect fill="#FEFECE" filter="url(#f1457kcu4jwe06)" height="48.2656" rx="12.5" ry="12.5" style="stroke: #0000FF; stroke-width: 1.5;" width="312" x="10" y="54.1328"/><text fill="#000000" font-family="sans-serif" font-size="24" lengthAdjust="spacingAndGlyphs" textLength="292" x="20" y="87.3359">Separate Code from Data</text><rect fill="#FEFECE" filter="url(#f1457kcu4jwe06)" height="48.2656" rx="12.5" ry="12.5" style="stroke: #0000FF; stroke-width: 1.5;" width="187" x="372" y="20"/><text fill="#000000" font-family="sans-serif" font-size="24" lengthAdjust="spacingAndGlyphs" textLength="167" x="382" y="53.2031">Code modules</text><rect fill="#FEFECE" filter="url(#f1457kcu4jwe06)" height="48.2656" rx="12.5" ry="12.5" style="stroke: #0000FF; stroke-width: 1.5;" width="242" x="609" y="20"/><text fill="#000000" font-family="sans-serif" font-size="24" lengthAdjust="spacingAndGlyphs" textLength="222" x="619" y="53.2031">Stateless Functions</text><path d="M559,44.1328 L569,44.1328 C584,44.1328 584,44.1328 599,44.1328 L609,44.1328 " fill="none" style="stroke: #0000FF; stroke-width: 3.0;"/><path d="M322,78.2656 L332,78.2656 C347,78.2656 347,44.1328 362,44.1328 L372,44.1328 " fill="none" style="stroke: #0000FF; stroke-width: 3.0;"/><rect fill="#FEFECE" filter="url(#f1457kcu4jwe06)" height="48.2656" rx="12.5" ry="12.5" style="stroke: #0000FF; stroke-width: 1.5;" width="166" x="372" y="88.2656"/><text fill="#000000" font-family="sans-serif" font-size="24" lengthAdjust="spacingAndGlyphs" textLength="146" x="382" y="121.4688">Data entities</text><rect fill="#FEFECE" filter="url(#f1457kcu4jwe06)" height="48.2656" rx="12.5" ry="12.5" style="stroke: #0000FF; stroke-width: 1.5;" width="189" x="588" y="88.2656"/><text fill="#000000" font-family="sans-serif" font-size="24" lengthAdjust="spacingAndGlyphs" textLength="169" x="598" y="121.4688">Only members</text><path d="M538,112.3984 L548,112.3984 C563,112.3984 563,112.3984 578,112.3984 L588,112.3984 " fill="none" style="stroke: #0000FF; stroke-width: 3.0;"/><path d="M322,78.2656 L332,78.2656 C347,78.2656 347,112.3984 362,112.3984 L372,112.3984 " fill="none" style="stroke: #0000FF; stroke-width: 3.0;"/><!--MD5=[492586e2f897246e629e6d34bf056507]
@startmindmap
!include SkinParam.iuml
* Separate Code from Data
** Code modules
*** Stateless Functions
** Data entities
*** Only members
@endmindmap

@startmindmap
<style>
mindmapDiagram {
  node {
    LineColor blue
    FontSize  24
  }
  arrow {
    LineColor blue
    LineThickness 3
  }
  .orange {
    BackgroundColor orange
  }
  .red {
    BackgroundColor red
  }

  .green {
    BackgroundColor lightgreen
  }

}
</style>
* Separate Code from Data
** Code modules
*** Stateless Functions
** Data entities
*** Only members
@endmindmap

PlantUML version 1.2020.15(Sun Jun 28 14:39:45 IDT 2020)
(GPL source distribution)
Java Runtime: Java(TM) SE Runtime Environment
JVM: Java HotSpot(TM) 64-Bit Server VM
Default Encoding: US-ASCII
Language: en
Country: IL
--></g></svg>