<?xml version="1.0" encoding="UTF-8" standalone="no"?><svg xmlns="http://www.w3.org/2000/svg" xmlns:xlink="http://www.w3.org/1999/xlink" contentScriptType="application/ecmascript" contentStyleType="text/css" height="596px" preserveAspectRatio="none" style="width:784px;height:596px;background:#FFFFFF;" version="1.1" viewBox="0 0 784 596" width="784px" zoomAndPan="magnify"><defs><filter height="300%" id="fz8rgizt8e15d" width="300%" x="-1" y="-1"><feGaussianBlur result="blurOut" stdDeviation="2.0"/><feColorMatrix in="blurOut" result="blurOut2" type="matrix" values="0 0 0 0 0 0 0 0 0 0 0 0 0 0 0 0 0 0 .4 0"/><feOffset dx="4.0" dy="4.0" in="blurOut2" result="blurOut3"/><feBlend in="SourceGraphic" in2="blurOut3" mode="normal"/></filter></defs><g><ellipse cx="253.3991" cy="32.1113" fill="#FFFFFF" filter="url(#fz8rgizt8e15d)" rx="42.8991" ry="14.6113" style="stroke:#0000FF;stroke-width:1.5;"/><text fill="#000000" font-family="sans-serif" font-size="14" lengthAdjust="spacing" textLength="44" x="228.3991" y="35.8588">Library</text><ellipse cx="159.3687" cy="143.68" fill="#FFFFFF" filter="url(#fz8rgizt8e15d)" rx="48.8687" ry="14.68" style="stroke:#0000FF;stroke-width:1.5;"/><text fill="#000000" font-family="sans-serif" font-size="14" lengthAdjust="spacing" textLength="52" x="130.3687" y="147.4275">Catalog</text><ellipse cx="325.3658" cy="143.2732" fill="#FFFFFF" filter="url(#fz8rgizt8e15d)" rx="81.8658" ry="18.7732" style="stroke:#0000FF;stroke-width:1.5;"/><text fill="#000000" font-family="sans-serif" font-size="14" lengthAdjust="spacing" textLength="123" x="262.8805" y="146.4463">UserManagement</text><ellipse cx="283.4706" cy="253.5236" fill="#FFFFFF" filter="url(#fz8rgizt8e15d)" rx="19.9706" ry="14.5236" style="stroke:#0000FF;stroke-width:1.5;"/><text fill="#000000" font-family="sans-serif" font-size="14" lengthAdjust="spacing" textLength="12" x="277.4706" y="256.3703">...</text><ellipse cx="404.613" cy="253.6226" fill="#FFFFFF" filter="url(#fz8rgizt8e15d)" rx="66.113" ry="15.6226" style="stroke:#0000FF;stroke-width:1.5;"/><text fill="#000000" font-family="sans-serif" font-size="14" lengthAdjust="spacing" textLength="82" x="360.613" y="257.3702">authorsById</text><ellipse cx="404.4706" cy="362.5236" fill="#FFFFFF" filter="url(#fz8rgizt8e15d)" rx="19.9706" ry="14.5236" style="stroke:#0000FF;stroke-width:1.5;"/><text fill="#000000" font-family="sans-serif" font-size="14" lengthAdjust="spacing" textLength="12" x="398.4706" y="365.3703">...</text><ellipse cx="159.6011" cy="253.6202" fill="#FFFFFF" filter="url(#fz8rgizt8e15d)" rx="68.6011" ry="16.1202" style="stroke:#0000FF;stroke-width:1.5;"/><text fill="#000000" font-family="sans-serif" font-size="14" lengthAdjust="spacing" textLength="89" x="112.1011" y="257.3678">booksByIsbn</text><ellipse cx="222.7349" cy="362.447" fill="#FFFFFF" filter="url(#fz8rgizt8e15d)" rx="62.7349" ry="14.947" style="stroke:#0000FF;stroke-width:1.5;"/><text fill="#000000" font-family="sans-serif" font-size="14" lengthAdjust="spacing" textLength="72" x="183.7349" y="366.1945">watchmen</text><ellipse cx="300.7198" cy="471.244" fill="#FFFFFF" filter="url(#fz8rgizt8e15d)" rx="74.2198" ry="17.244" style="stroke:#0000FF;stroke-width:1.5;"/><text fill="#000000" font-family="sans-serif" font-size="14" lengthAdjust="spacing" textLength="104" x="245.7198" y="474.9915">title:Watchmen</text><ellipse cx="98.3318" cy="470.8664" fill="#FFFFFF" filter="url(#fz8rgizt8e15d)" rx="92.3318" ry="20.8664" style="stroke:#0000FF;stroke-width:1.5;"/><text fill="#000000" font-family="sans-serif" font-size="14" lengthAdjust="spacing" textLength="147" x="24.8318" y="473.713">publicationYear:1987</text><ellipse cx="468.5731" cy="470.7619" fill="#FFFFFF" filter="url(#fz8rgizt8e15d)" rx="58.5731" ry="14.7619" style="stroke:#0000FF;stroke-width:1.5;"/><text fill="#000000" font-family="sans-serif" font-size="14" lengthAdjust="spacing" textLength="65" x="433.0731" y="474.5095">authorIds</text><ellipse cx="468.4706" cy="569.5236" fill="#FFFFFF" filter="url(#fz8rgizt8e15d)" rx="19.9706" ry="14.5236" style="stroke:#0000FF;stroke-width:1.5;"/><text fill="#000000" font-family="sans-serif" font-size="14" lengthAdjust="spacing" textLength="12" x="462.4706" y="572.3703">...</text><ellipse cx="396.3577" cy="32.1984" fill="#FFB6C1" filter="url(#fz8rgizt8e15d)" rx="42.8577" ry="26.1984" style="stroke:#0000FF;stroke-width:1.5;"/><text fill="#000000" font-family="sans-serif" font-size="14" font-style="italic" lengthAdjust="spacing" textLength="51" x="369.6077" y="27.7975">«Next»</text><text fill="#000000" font-family="sans-serif" font-size="14" lengthAdjust="spacing" textLength="44" x="373.1077" y="44.0944">Library</text><ellipse cx="490.3498" cy="143.5863" fill="#FFB6C1" filter="url(#fz8rgizt8e15d)" rx="47.3498" ry="25.5863" style="stroke:#0000FF;stroke-width:1.5;"/><text fill="#000000" font-family="sans-serif" font-size="14" font-style="italic" lengthAdjust="spacing" textLength="51" x="461.5998" y="139.1855">«Next»</text><text fill="#000000" font-family="sans-serif" font-size="14" lengthAdjust="spacing" textLength="52" x="461.0998" y="155.4823">Catalog</text><ellipse cx="574.4857" cy="253.2943" fill="#FFB6C1" filter="url(#fz8rgizt8e15d)" rx="68.9857" ry="24.2943" style="stroke:#0000FF;stroke-width:1.5;"/><text fill="#000000" font-family="sans-serif" font-size="14" font-style="italic" lengthAdjust="spacing" textLength="51" x="543.3035" y="247.3245">«Next»</text><text fill="#000000" font-family="sans-serif" font-size="14" lengthAdjust="spacing" textLength="89" x="524.3035" y="263.6214">booksByIsbn</text><ellipse cx="546.3264" cy="362.6618" fill="#FFB6C1" filter="url(#fz8rgizt8e15d)" rx="58.8264" ry="24.6618" style="stroke:#0000FF;stroke-width:1.5;"/><text fill="#000000" font-family="sans-serif" font-size="14" font-style="italic" lengthAdjust="spacing" textLength="51" x="515.4566" y="357.4099">«Next»</text><text fill="#000000" font-family="sans-serif" font-size="14" lengthAdjust="spacing" textLength="72" x="504.9566" y="373.7068">watchmen</text><ellipse cx="667.2842" cy="470.865" fill="#FFB6C1" filter="url(#fz8rgizt8e15d)" rx="104.7842" ry="23.865" style="stroke:#0000FF;stroke-width:1.5;"/><text fill="#000000" font-family="sans-serif" font-size="14" font-style="italic" lengthAdjust="spacing" textLength="51" x="634.9418" y="463.8782">«Next»</text><text fill="#000000" font-family="sans-serif" font-size="14" lengthAdjust="spacing" textLength="147" x="586.9418" y="480.1751">publicationYear:1986</text><!--MD5=[5e24db372b23b899edd2f6ac7c607304]
link Library to UserManagement--><path d="M262.33,46.43 C274.44,64.84 296.36,98.18 310.92,120.33 " fill="none" id="Library-to-UserManagement" style="stroke:#0000FF;stroke-width:1.0;"/><polygon fill="#0000FF" points="313.73,124.6,312.1196,114.8837,310.9796,120.4245,305.4388,119.2844,313.73,124.6" style="stroke:#0000FF;stroke-width:1.0;"/><!--MD5=[47b7e45a410c271a42b9691346194c7d]
link UserManagement to users--><path d="M318.38,162.82 C310.61,182.79 298.26,214.55 290.53,234.43 " fill="none" id="UserManagement-to-users" style="stroke:#0000FF;stroke-width:1.0;"/><polygon fill="#0000FF" points="288.67,239.21,295.6456,232.2573,290.4726,234.5462,288.1836,229.3732,288.67,239.21" style="stroke:#0000FF;stroke-width:1.0;"/><!--MD5=[808acc9e62ae45dd75218655b425f6b3]
link Library to Catalog--><path d="M241.97,46.43 C224.9,66.32 192.88,103.61 174.16,125.42 " fill="none" id="Library-to-Catalog" style="stroke:#0000FF;stroke-width:1.0;"/><polygon fill="#0000FF" points="170.83,129.31,179.732,125.0964,174.091,125.5198,173.6677,119.8788,170.83,129.31" style="stroke:#0000FF;stroke-width:1.0;"/><!--MD5=[57a7a1351c9310912f7a3ae4926a8fa2]
link Catalog to authorsById--><path d="M185.26,155.85 C229.65,175.42 320.58,215.51 370.25,237.4 " fill="none" id="Catalog-to-authorsById" style="stroke:#0000FF;stroke-width:1.0;"/><polygon fill="#0000FF" points="374.93,239.46,368.3069,232.1706,370.3545,237.4439,365.0812,239.4915,374.93,239.46" style="stroke:#0000FF;stroke-width:1.0;"/><!--MD5=[e8a1c3be51d3b91cfa77df5de88742fa]
link authorsById to authors--><path d="M404.5,269.38 C404.5,288.54 404.5,321.86 404.5,342.74 " fill="none" id="authorsById-to-authors" style="stroke:#0000FF;stroke-width:1.0;"/><polygon fill="#0000FF" points="404.5,347.76,408.5,338.76,404.5,342.76,400.5,338.76,404.5,347.76" style="stroke:#0000FF;stroke-width:1.0;"/><!--MD5=[42c58503ca11a7c83d699c4c065d5990]
link Catalog to booksByIsbn--><path d="M159.5,158.18 C159.5,176.81 159.5,210.31 159.5,231.96 " fill="none" id="Catalog-to-booksByIsbn" style="stroke:#0000FF;stroke-width:1.0;"/><polygon fill="#0000FF" points="159.5,237.19,163.5,228.19,159.5,232.19,155.5,228.19,159.5,237.19" style="stroke:#0000FF;stroke-width:1.0;"/><!--MD5=[34ce3ca51ebf68ea3e7c4efa5432f3d8]
link booksByIsbn to watchmen--><path d="M168.26,269.38 C179.58,288.6 199.27,322.05 211.56,342.92 " fill="none" id="booksByIsbn-to-watchmen" style="stroke:#0000FF;stroke-width:1.0;"/><polygon fill="#0000FF" points="214.22,347.43,213.0961,337.6455,211.6812,343.1225,206.2041,341.7076,214.22,347.43" style="stroke:#0000FF;stroke-width:1.0;"/><!--MD5=[5feb81275e277c2837dda37dca2d9549]
link watchmen to title--><path d="M232.7,377.42 C246.25,395.92 270.28,428.73 285.79,449.91 " fill="none" id="watchmen-to-title" style="stroke:#0000FF;stroke-width:1.0;"/><polygon fill="#0000FF" points="288.77,453.99,286.6689,444.3679,285.8113,449.9593,280.2199,449.1018,288.77,453.99" style="stroke:#0000FF;stroke-width:1.0;"/><!--MD5=[3f6035026febc5acf31c2b5c5b2eb529]
link watchmen to publicationYear--><path d="M206.54,377.2 C185.93,394.91 149.76,425.97 124.99,447.25 " fill="none" id="watchmen-to-publicationYear" style="stroke:#0000FF;stroke-width:1.0;"/><polygon fill="#0000FF" points="121.12,450.57,130.5512,447.7323,124.9102,447.309,125.3336,441.668,121.12,450.57" style="stroke:#0000FF;stroke-width:1.0;"/><!--MD5=[bd218aa3a1263d2db382ade7852766b5]
link watchmen to authorIds--><path d="M251.2,375.93 C297.15,395.82 386.98,434.71 435.51,455.72 " fill="none" id="watchmen-to-authorIds" style="stroke:#0000FF;stroke-width:1.0;"/><polygon fill="#0000FF" points="440.36,457.82,433.6905,450.5731,435.7717,455.8332,430.5116,457.9143,440.36,457.82" style="stroke:#0000FF;stroke-width:1.0;"/><!--MD5=[b514817514a7bc04230202606f883738]
link authorIds to watchmenAuthors--><path d="M468.5,486.24 C468.5,502.96 468.5,530.78 468.5,549.38 " fill="none" id="authorIds-to-watchmenAuthors" style="stroke:#0000FF;stroke-width:1.0;"/><polygon fill="#0000FF" points="468.5,554.83,472.5,545.83,468.5,549.83,464.5,545.83,468.5,554.83" style="stroke:#0000FF;stroke-width:1.0;"/><!--MD5=[987d735a3ae0c855620bd03d73e88420]
link lib2 to UserManagement--><path d="M381.27,56.49 C369.1,75.26 352.15,101.4 340.14,119.93 " fill="none" id="lib2-to-UserManagement" style="stroke:#0000FF;stroke-width:1.0;"/><polygon fill="#0000FF" points="337.2,124.46,345.4529,119.085,339.9204,120.2648,338.7406,114.7324,337.2,124.46" style="stroke:#0000FF;stroke-width:1.0;"/><!--MD5=[3a56cae4d9bb3362c086b130e7dd3e8b]
link lib2 to catalog2--><path d="M415.75,55.42 C430.83,72.99 451.85,97.48 467.76,116.01 " fill="none" id="lib2-to-catalog2" style="stroke:#0000FF;stroke-width:1.0;"/><polygon fill="#0000FF" points="471.28,120.11,468.4599,110.6735,468.026,116.3137,462.3859,115.8799,471.28,120.11" style="stroke:#0000FF;stroke-width:1.0;"/><!--MD5=[a9ccb9ffcd1dae3a67acb305ef3727f6]
link catalog2 to authorsById--><path d="M472.47,167.14 C456.63,187.04 433.86,215.63 419.13,234.13 " fill="none" id="catalog2-to-authorsById" style="stroke:#0000FF;stroke-width:1.0;"/><polygon fill="#0000FF" points="415.93,238.15,424.6636,233.5976,419.043,234.2373,418.4033,228.6167,415.93,238.15" style="stroke:#0000FF;stroke-width:1.0;"/><!--MD5=[00529eaafd4454c0a85c3654cb1bca2d]
link catalog2 to books2--><path d="M508.31,167.4 C521.57,184.44 539.69,207.75 553.63,225.66 " fill="none" id="catalog2-to-books2" style="stroke:#0000FF;stroke-width:1.0;"/><polygon fill="#0000FF" points="556.71,229.63,554.3348,220.0719,553.6373,225.6855,548.0236,224.9881,556.71,229.63" style="stroke:#0000FF;stroke-width:1.0;"/><!--MD5=[4479d80727cd6d5d89410ed7e560266c]
link books2 to watchmen2--><path d="M568.36,277.98 C564.12,294.15 558.48,315.72 553.99,332.9 " fill="none" id="books2-to-watchmen2" style="stroke:#0000FF;stroke-width:1.0;"/><polygon fill="#0000FF" points="552.63,338.07,558.7843,330.3807,553.8997,333.2339,551.0465,328.3493,552.63,338.07" style="stroke:#0000FF;stroke-width:1.0;"/><!--MD5=[c6d0b437871337050fa618be6e9161e5]
link watchmen2 to title--><path d="M506.7,380.73 C460.26,400.84 384.01,433.84 338.4,453.59 " fill="none" id="watchmen2-to-title" style="stroke:#0000FF;stroke-width:1.0;"/><polygon fill="#0000FF" points="333.54,455.7,343.3883,455.8055,338.1305,453.7184,340.2177,448.4606,333.54,455.7" style="stroke:#0000FF;stroke-width:1.0;"/><!--MD5=[c182f3fec3bb19718fbe53b597a8af98]
link watchmen2 to authorIds--><path d="M529.96,386.09 C515.69,405.56 495.35,433.34 482.04,451.52 " fill="none" id="watchmen2-to-authorIds" style="stroke:#0000FF;stroke-width:1.0;"/><polygon fill="#0000FF" points="478.81,455.92,487.3601,451.0318,481.7687,451.8893,480.9111,446.2979,478.81,455.92" style="stroke:#0000FF;stroke-width:1.0;"/><!--MD5=[1e8b1eeafafe8557004b02bfeb766267]
link watchmen2 to publicationYear2--><path d="M570.99,385.05 C590.36,402.1 617.48,425.97 638.04,444.07 " fill="none" id="watchmen2-to-publicationYear2" style="stroke:#0000FF;stroke-width:1.0;"/><polygon fill="#0000FF" points="641.8,447.38,637.6776,438.4354,638.0433,444.0804,632.3983,444.4461,641.8,447.38" style="stroke:#0000FF;stroke-width:1.0;"/><!--MD5=[5cdb3dbf4b46fc16e8a2fc43b8820cc8]
@startuml
top to bottom direction
skinparam packageStyle rectangle
skinparam usecase {
  BackgroundColor White
  BorderColor Blue

  BackgroundColor<< Next >> LightPink

  ArrowColor Blue
}


usecase Library
usecase Catalog
usecase UserManagement
usecase ... as users
usecase authorsById
usecase ... as authors
usecase booksByIsbn
usecase watchmen
usecase "title:Watchmen" as title
usecase "publicationYear:1987" as publicationYear
usecase authorIds
usecase ... as watchmenAuthors

usecase Library as lib2 << Next >>
usecase Catalog as catalog2 << Next >>
usecase booksByIsbn as books2 << Next >>
usecase watchmen as watchmen2 << Next >>
usecase "publicationYear:1986" as publicationYear2 << Next >>

Library - -> UserManagement
UserManagement - -> users
Library - -> Catalog
Catalog - -> authorsById
authorsById - -> authors
Catalog - -> booksByIsbn
booksByIsbn - -> watchmen
watchmen - -> title
watchmen - -> publicationYear
watchmen - -> authorIds
authorIds - -> watchmenAuthors

lib2 - -> UserManagement
lib2 - -> catalog2
catalog2 - -> authorsById
catalog2 - -> books2
books2 - -> watchmen2
watchmen2 - -> title
watchmen2 - -> authorIds
watchmen2 - -> publicationYear2

@enduml

PlantUML version 1.2021.7(Sun May 23 15:40:07 IDT 2021)
(GPL source distribution)
Java Runtime: OpenJDK Runtime Environment
JVM: OpenJDK 64-Bit Server VM
Default Encoding: UTF-8
Language: en
Country: IL
--></g></svg>